<svg width="142" height="97" viewBox="0 0 142 97" fill="none" xmlns="http://www.w3.org/2000/svg">
<path d="M66.7251 77.7532C103.576 77.7532 133.45 60.5083 133.45 39.2356C133.45 17.9629 103.576 0.718018 66.7251 0.718018C29.8739 0.718018 0 17.9629 0 39.2356C0 60.5083 29.8739 77.7532 66.7251 77.7532Z" fill="#F2E8DF"/>
<path d="M66.7245 76.0597C101.953 76.0597 130.511 59.573 130.511 39.2356C130.511 18.8981 101.953 2.41138 66.7245 2.41138C31.4962 2.41138 2.93799 18.8981 2.93799 39.2356C2.93799 59.573 31.4962 76.0597 66.7245 76.0597Z" fill="url(#paint0_linear_692_16267)"/>
<mask id="mask0_692_16267" style="mask-type:luminance" maskUnits="userSpaceOnUse" x="2" y="2" width="129" height="75">
<path d="M66.725 76.0597C101.953 76.0597 130.511 59.573 130.511 39.2356C130.511 18.8981 101.953 2.41138 66.725 2.41138C31.4967 2.41138 2.93848 18.8981 2.93848 39.2356C2.93848 59.573 31.4967 76.0597 66.725 76.0597Z" fill="white"/>
</mask>
<g mask="url(#mask0_692_16267)">
<path d="M66.725 78.0683C101.953 78.0683 130.511 61.5815 130.511 41.2441C130.511 20.9067 101.953 4.41992 66.725 4.41992C31.4967 4.41992 2.93848 20.9067 2.93848 41.2441C2.93848 61.5815 31.4967 78.0683 66.725 78.0683Z" fill="#ADAC97"/>
</g>
<path d="M133.434 38.8872V56.0873C133.6 66.0654 127.075 76.0766 113.893 83.6805C87.8434 98.7223 45.5902 98.7223 19.541 83.6805C6.6741 76.2427 0.149422 66.5302 0 56.8012V39.6011C0.149422 49.3467 6.6741 59.0592 19.541 66.4804C45.5902 81.5222 87.8434 81.5222 113.893 66.4804C127.075 58.8765 133.583 48.8653 133.434 38.8872Z" fill="url(#paint1_linear_692_16267)"/>
<path d="M66.7243 69.8671C99.4953 69.8671 126.061 54.525 126.061 35.5997C126.061 16.6743 99.4953 1.33228 66.7243 1.33228C33.9534 1.33228 7.38721 16.6743 7.38721 35.5997C7.38721 54.525 33.9534 69.8671 66.7243 69.8671Z" fill="#F2E8DF"/>
<path d="M66.7247 68.3561C98.056 68.3561 123.455 53.6905 123.455 35.5996C123.455 17.5086 98.056 2.84302 66.7247 2.84302C35.3933 2.84302 9.99414 17.5086 9.99414 35.5996C9.99414 53.6905 35.3933 68.3561 66.7247 68.3561Z" fill="url(#paint2_linear_692_16267)"/>
<mask id="mask1_692_16267" style="mask-type:luminance" maskUnits="userSpaceOnUse" x="9" y="2" width="115" height="67">
<path d="M66.7247 68.3561C98.056 68.3561 123.455 53.6905 123.455 35.5996C123.455 17.5086 98.056 2.84302 66.7247 2.84302C35.3933 2.84302 9.99414 17.5086 9.99414 35.5996C9.99414 53.6905 35.3933 68.3561 66.7247 68.3561Z" fill="white"/>
</mask>
<g mask="url(#mask1_692_16267)">
<path d="M66.7247 72.1747C98.056 72.1747 123.455 57.5091 123.455 39.4182C123.455 21.3272 98.056 6.66162 66.7247 6.66162C35.3933 6.66162 9.99414 21.3272 9.99414 39.4182C9.99414 57.5091 35.3933 72.1747 66.7247 72.1747Z" fill="#999981"/>
<g style="mix-blend-mode:multiply">
<path d="M114.042 21.3379L68.5011 36.8612L19.7896 20.9893C19.3082 21.3877 18.8599 21.8028 18.4282 22.2013L67.7208 38.2558L68.2852 71.195L69.8625 71.1618L69.2981 38.2226L115.353 22.5167C114.921 22.1016 114.49 21.7032 114.025 21.3047L114.042 21.3379Z" fill="#9E9E9E"/>
</g>
</g>
<path d="M126.061 35.2844V37.9574C126.194 46.8231 120.416 55.722 108.678 62.4958C85.5015 75.8773 47.9303 75.8773 24.7533 62.4958C13.2976 55.888 7.52003 47.2548 7.37061 38.5883V35.9153C7.50342 44.5818 13.2976 53.215 24.7533 59.8228C47.9303 73.2043 85.5015 73.2043 108.678 59.8228C120.4 53.049 126.194 44.1501 126.061 35.2844Z" fill="url(#paint3_linear_692_16267)"/>
<path d="M51.8638 37.0611V39.4518C51.897 41.8924 53.5405 44.3329 56.778 46.209C63.3194 49.9943 73.9284 49.9943 80.4697 46.209C83.7736 44.2997 85.4173 41.7927 85.3841 39.2858V36.895L51.8804 37.0776L51.8638 37.0611Z" fill="url(#paint4_linear_692_16267)"/>
<path d="M80.4712 43.8175C73.9299 47.6028 63.3209 47.6028 56.7795 43.8175C50.2382 40.0321 50.2382 33.9225 56.7795 30.1371C63.3209 26.3518 73.9299 26.3518 80.4712 30.1371C87.0126 33.9225 87.0126 40.0321 80.4712 43.8175Z" fill="#F2E8DF"/>
<path d="M79.607 43.3197C73.5472 46.8228 63.702 46.8228 57.6421 43.3197C51.5822 39.8166 51.5822 34.1385 57.6421 30.6354C63.702 27.1323 73.5472 27.1323 79.607 30.6354C85.6669 34.1385 85.6669 39.8166 79.607 43.3197Z" fill="#999981"/>
<path d="M64.1504 31.7971V36.5952C64.1504 37.2925 64.6319 37.9898 65.5617 38.5211C67.4377 39.6003 70.4759 39.6003 72.352 38.5211C73.2983 37.9732 73.7633 37.2593 73.7633 36.5288V31.7307L64.167 31.7805L64.1504 31.7971Z" fill="url(#paint5_linear_692_16267)"/>
<path d="M72.3361 33.7236C70.46 34.8028 67.4218 34.8028 65.5457 33.7236C63.6697 32.6445 63.6697 30.8846 65.5457 29.8055C67.4218 28.7263 70.46 28.7263 72.3361 29.8055C74.2121 30.8846 74.2121 32.6445 72.3361 33.7236Z" fill="#EFEBE5"/>
<path d="M126.46 79.5296L135.359 74.3662L142 78.1848L133.084 83.3647L126.46 79.5296Z" fill="#F2E8DF"/>
<path d="M125.547 77.9695L134.462 72.8062L135.359 73.3208L126.46 78.5008L125.547 77.9695Z" fill="#F2E8DF"/>
<path d="M126.46 78.5005L135.359 73.3206V74.3665L126.46 79.5299V78.5005Z" fill="#DED3C9"/>
<path d="M124.65 76.4089L133.549 71.229L134.462 71.7603L125.564 76.9236L124.65 76.4089Z" fill="#F2E8DF"/>
<path d="M125.563 76.9236L134.462 71.7603V72.8062L125.547 77.9696L125.563 76.9236Z" fill="#DED3C9"/>
<path d="M123.736 74.8316L132.652 69.6682L133.548 70.1995L124.649 75.3628L123.736 74.8316Z" fill="#F2E8DF"/>
<path d="M124.65 75.3626L133.549 70.1992V71.2286L124.65 76.4085V75.3626Z" fill="#DED3C9"/>
<path d="M122.84 73.2705L131.739 68.1072L132.652 68.6218L123.753 73.8018L122.84 73.2705Z" fill="#F2E8DF"/>
<path d="M123.753 73.802L132.652 68.6221V69.668L123.736 74.8314L123.753 73.802Z" fill="#DED3C9"/>
<path d="M122.84 72.2249L131.739 67.0615V68.1075L122.84 73.2708V72.2249Z" fill="#DED3C9"/>
<path d="M121.927 71.71L130.843 66.53L131.739 67.0613L122.84 72.2246L121.927 71.71Z" fill="#F2E8DF"/>
<path d="M121.031 70.1333L129.93 64.97L130.843 65.5012L121.927 70.6646L121.031 70.1333Z" fill="#F2E8DF"/>
<path d="M121.927 70.6636L130.843 65.5002V66.5296L121.927 71.7096V70.6636Z" fill="#DED3C9"/>
<path d="M120.118 68.5718L129.017 63.4084L129.93 63.9231L121.031 69.1031L120.118 68.5718Z" fill="#F2E8DF"/>
<path d="M121.031 69.1031L129.93 63.9231V64.9691L121.031 70.1324V69.1031Z" fill="#DED3C9"/>
<path d="M120.118 67.5433L129.033 62.3633L129.017 63.4092L120.118 68.5726V67.5433Z" fill="#DED3C9"/>
<path d="M117.113 65.7998L126.028 60.6365L129.033 62.3631L120.118 67.5431L117.113 65.7998Z" fill="#F2E8DF"/>
<path d="M126.46 79.53V78.4841L125.547 77.9528V76.9068L124.65 76.3755V75.3296L123.737 74.7983V73.7524L122.841 73.2211V72.1751L121.928 71.6439V70.5979L121.014 70.0666V69.0207L120.118 68.4894V67.4435L117.113 65.7168V66.7794L119.553 68.1906V69.2365L120.45 69.7678V70.8138L121.363 71.345V72.391L122.26 72.9222V73.9682L123.173 74.4995C123.156 74.4995 123.139 75.5454 123.139 75.5454L124.053 76.0767V77.1226L124.949 77.6539V78.6999L125.862 79.2312V80.2771L133.084 84.4111V83.3652L126.46 79.53Z" fill="#CEC4B7"/>
<path d="M126.195 94.6384L118.06 89.9399L117.146 90.4712L125.282 95.1697L126.195 94.6384Z" fill="#F2E8DF"/>
<path d="M125.282 95.1689L117.146 90.4705V91.4998L125.282 96.1983V95.1689Z" fill="#CEC4B7"/>
<path d="M127.092 93.0771L118.957 88.3787L118.043 88.8933L126.179 93.5918L127.092 93.0771Z" fill="#F2E8DF"/>
<path d="M126.179 93.5918L118.043 88.8933L118.06 89.9392L126.195 94.6377L126.179 93.5918Z" fill="#CEC4B7"/>
<path d="M128.004 91.4998L119.869 86.8013L118.956 87.3326L127.091 92.031L128.004 91.4998Z" fill="#F2E8DF"/>
<path d="M127.091 92.0315L118.956 87.333V88.379L127.091 93.0774V92.0315Z" fill="#CEC4B7"/>
<path d="M128.9 89.9397L120.765 85.2412L119.852 85.7725L127.987 90.471L128.9 89.9397Z" fill="#F2E8DF"/>
<path d="M127.987 90.4705L119.852 85.772L119.869 86.8013L128.004 91.4998L127.987 90.4705Z" fill="#CEC4B7"/>
<path d="M128.901 88.8933L120.766 84.2114V85.2408L128.901 89.9393V88.8933Z" fill="#CEC4B7"/>
<path d="M129.814 88.3792L121.679 83.6807L120.766 84.2119L128.901 88.8938L129.814 88.3792Z" fill="#F2E8DF"/>
<path d="M130.711 86.8015L122.576 82.1196L121.679 82.6343L129.798 87.3328L130.711 86.8015Z" fill="#F2E8DF"/>
<path d="M129.798 87.3328L121.679 82.6343V83.6802L129.814 88.3787L129.798 87.3328Z" fill="#CEC4B7"/>
<path d="M131.624 85.2405L123.489 80.542L122.576 81.0733L130.711 85.7717L131.624 85.2405Z" fill="#F2E8DF"/>
<path d="M130.711 85.7725L122.576 81.074V82.1199L130.711 86.8018V85.7725Z" fill="#CEC4B7"/>
<path d="M142 78.1851L133.101 83.3484L131.623 84.1951V85.2411L130.727 85.7724V86.8183L129.814 87.3496V88.3955L128.901 88.9268V89.9728L128.004 90.5041V91.55L127.091 92.0813V93.1272L126.194 93.6585V94.7045L125.281 95.2357V96.2817L142 86.6523V78.2847V78.1851Z" fill="#DED3C9"/>
<path d="M131.624 84.1951L123.488 79.5132V80.5426L131.624 85.241V84.1951Z" fill="#CEC4B7"/>
<path d="M133.085 83.3484L124.966 78.6499L123.488 79.5132L131.624 84.1951L133.085 83.3484Z" fill="#F2E8DF"/>
<path d="M118.723 65.8483L54.5874 28.8083V29.7215L118.723 66.7615V65.8483Z" fill="#CEC4B7"/>
<path d="M127.639 61.5989L118.723 66.7623V65.8492L127.639 60.7024V61.5989Z" fill="#DED3C9"/>
<path d="M118.723 65.8491L54.5874 28.8091L63.503 23.6624L127.638 60.7023L118.723 65.8491Z" fill="#F2E8DF"/>
<path d="M119.736 65.2677L56.4141 28.7092L63.5531 24.5752L126.875 61.1337L119.736 65.2677Z" fill="#918F8A"/>
<path d="M63.4863 23.9775V20.9226C63.4863 20.9226 63.5527 20.7898 63.6191 20.7898C63.6855 20.7898 63.7519 20.8562 63.7519 20.9226V23.9775C63.7519 24.0937 63.4697 24.0937 63.4697 23.9775H63.4863Z" fill="#5B5651"/>
<path d="M67.7197 26.4181V23.3633C67.7197 23.3633 67.7862 23.2305 67.8526 23.2305C67.919 23.2305 67.9853 23.2969 67.9853 23.3633V26.4181C67.9853 26.5343 67.7031 26.5343 67.7031 26.4181H67.7197Z" fill="#5B5651"/>
<path d="M71.9365 28.8583V25.8035C71.9365 25.8035 72.003 25.6707 72.0694 25.6707C72.1358 25.6707 72.2022 25.7371 72.2022 25.8035V28.8583C72.2022 28.9745 71.9199 28.9745 71.9199 28.8583H71.9365Z" fill="#5B5651"/>
<path d="M76.1543 31.299V28.2442C76.1543 28.2442 76.2207 28.1113 76.2871 28.1113C76.3535 28.1113 76.4199 28.1777 76.4199 28.2442V31.299C76.4199 31.4152 76.1377 31.4152 76.1377 31.299H76.1543Z" fill="#5B5651"/>
<path d="M80.3877 33.7397V30.6848C80.3877 30.6848 80.4542 30.552 80.5206 30.552C80.587 30.552 80.6533 30.6184 80.6533 30.6848V33.7397C80.6533 33.8559 80.3711 33.8559 80.3711 33.7397H80.3877Z" fill="#5B5651"/>
<path d="M84.6045 36.1645V33.1096C84.6045 33.1096 84.6709 32.9768 84.7374 32.9768C84.8038 32.9768 84.8702 33.0432 84.8702 33.1096V36.1645C84.8702 36.2807 84.5879 36.2807 84.5879 36.1645H84.6045Z" fill="#5B5651"/>
<path d="M88.8218 38.6047V35.5498C88.8218 35.5498 88.8881 35.417 88.9545 35.417C89.021 35.417 89.0874 35.4834 89.0874 35.5498V38.6047C89.0874 38.7209 88.8052 38.7209 88.8052 38.6047H88.8218Z" fill="#5B5651"/>
<path d="M93.0552 41.0453V37.9905C93.0552 37.9905 93.1215 37.8577 93.1879 37.8577C93.2543 37.8577 93.3208 37.9241 93.3208 37.9905V41.0453C93.3208 41.1615 93.0386 41.1615 93.0386 41.0453H93.0552Z" fill="#5B5651"/>
<path d="M97.273 43.4858V40.4309C97.273 40.4309 97.3394 40.2981 97.4058 40.2981C97.4722 40.2981 97.5387 40.3645 97.5387 40.4309V43.4858C97.5387 43.602 97.2563 43.602 97.2563 43.4858H97.273Z" fill="#5B5651"/>
<path d="M101.489 45.9262V42.8713C101.489 42.8713 101.556 42.7385 101.622 42.7385C101.688 42.7385 101.755 42.8049 101.755 42.8713V45.9262C101.755 46.0424 101.473 46.0424 101.473 45.9262H101.489Z" fill="#5B5651"/>
<path d="M105.707 48.3498V45.2949C105.707 45.2949 105.773 45.1621 105.839 45.1621C105.906 45.1621 105.972 45.2285 105.972 45.2949V48.3498C105.972 48.466 105.69 48.466 105.69 48.3498H105.707Z" fill="#5B5651"/>
<path d="M109.939 50.7902V47.7354C109.939 47.7354 110.005 47.6025 110.072 47.6025C110.138 47.6025 110.205 47.669 110.205 47.7354V50.7902C110.205 50.9064 109.922 50.9064 109.922 50.7902H109.939Z" fill="#5B5651"/>
<path d="M114.157 53.2306V50.1758C114.157 50.1758 114.224 50.043 114.29 50.043C114.356 50.043 114.423 50.1094 114.423 50.1758V53.2306C114.423 53.3468 114.141 53.3468 114.141 53.2306H114.157Z" fill="#5B5651"/>
<path d="M118.374 55.6718V52.617C118.374 52.617 118.44 52.4841 118.507 52.4841C118.573 52.4841 118.64 52.5505 118.64 52.617V55.6718C118.64 55.788 118.357 55.788 118.357 55.6718H118.374Z" fill="#5B5651"/>
<path d="M122.607 58.1125V55.0576C122.607 55.0576 122.674 54.9248 122.74 54.9248C122.807 54.9248 122.873 54.9912 122.873 55.0576V58.1125C122.873 58.2287 122.591 58.2287 122.591 58.1125H122.607Z" fill="#5B5651"/>
<path d="M126.824 60.5527V57.4978C126.824 57.4978 126.891 57.365 126.957 57.365C127.023 57.365 127.09 57.4314 127.09 57.4978V60.5527C127.09 60.6689 126.808 60.6689 126.808 60.5527H126.824Z" fill="#5B5651"/>
<path d="M55.168 28.7924V25.7376C55.168 25.7376 55.2344 25.6047 55.3008 25.6047C55.3672 25.6047 55.4336 25.6711 55.4336 25.7376V28.7924C55.4336 28.9086 55.1514 28.9086 55.1514 28.7924H55.168Z" fill="#5B5651"/>
<path d="M59.3676 26.3688V23.314C59.3676 23.314 59.434 23.1812 59.5004 23.1812C59.5668 23.1812 59.6333 23.2476 59.6333 23.314V26.3688C59.6333 26.485 59.3511 26.485 59.3511 26.3688H59.3676Z" fill="#5B5651"/>
<path d="M59.4014 31.2165V28.1616C59.4014 28.1616 59.4678 28.0288 59.5342 28.0288C59.6006 28.0288 59.6671 28.0952 59.6671 28.1616V31.2165C59.6671 31.3327 59.3848 31.3327 59.3848 31.2165H59.4014Z" fill="#5B5651"/>
<path d="M63.6186 33.6574V30.6025C63.6186 30.6025 63.685 30.4697 63.7514 30.4697C63.8178 30.4697 63.8843 30.5361 63.8843 30.6025V33.6574C63.8843 33.7736 63.6021 33.7736 63.6021 33.6574H63.6186Z" fill="#5B5651"/>
<path d="M67.836 36.0981V33.0432C67.836 33.0432 67.9024 32.9104 67.9688 32.9104C68.0352 32.9104 68.1015 32.9768 68.1015 33.0432V36.0981C68.1015 36.2143 67.8193 36.2143 67.8193 36.0981H67.836Z" fill="#5B5651"/>
<path d="M72.0694 38.5385V35.4837C72.0694 35.4837 72.1358 35.3508 72.2022 35.3508C72.2686 35.3508 72.3349 35.4172 72.3349 35.4837V38.5385C72.3349 38.6547 72.0527 38.6547 72.0527 38.5385H72.0694Z" fill="#5B5651"/>
<path d="M76.2875 40.9789V37.9241C76.2875 37.9241 76.354 37.7913 76.4204 37.7913C76.4868 37.7913 76.5532 37.8577 76.5532 37.9241V40.9789C76.5532 41.0951 76.271 41.0951 76.271 40.9789H76.2875Z" fill="#5B5651"/>
<path d="M80.5039 43.4025V40.3477C80.5039 40.3477 80.5703 40.2148 80.6367 40.2148C80.7031 40.2148 80.7695 40.2813 80.7695 40.3477V43.4025C80.7695 43.5187 80.4873 43.5187 80.4873 43.4025H80.5039Z" fill="#5B5651"/>
<path d="M84.7378 45.8429V42.7881C84.7378 42.7881 84.8042 42.6553 84.8707 42.6553C84.9371 42.6553 85.0034 42.7217 85.0034 42.7881V45.8429C85.0034 45.9592 84.7212 45.9592 84.7212 45.8429H84.7378Z" fill="#5B5651"/>
<path d="M88.9541 48.2834V45.2285C88.9541 45.2285 89.0206 45.0957 89.087 45.0957C89.1534 45.0957 89.2198 45.1621 89.2198 45.2285V48.2834C89.2198 48.3996 88.9375 48.3996 88.9375 48.2834H88.9541Z" fill="#5B5651"/>
<path d="M93.1714 50.7238V47.669C93.1714 47.669 93.2377 47.5361 93.3042 47.5361C93.3706 47.5361 93.437 47.6025 93.437 47.669V50.7238C93.437 50.84 93.1548 50.84 93.1548 50.7238H93.1714Z" fill="#5B5651"/>
<path d="M97.3887 53.165V50.1101C97.3887 50.1101 97.4551 49.9773 97.5215 49.9773C97.5879 49.9773 97.6543 50.0437 97.6543 50.1101V53.165C97.6543 53.2812 97.3721 53.2812 97.3721 53.165H97.3887Z" fill="#5B5651"/>
<path d="M101.622 55.6059V52.551C101.622 52.551 101.688 52.4182 101.754 52.4182C101.821 52.4182 101.887 52.4846 101.887 52.551V55.6059C101.887 55.7221 101.605 55.7221 101.605 55.6059H101.622Z" fill="#5B5651"/>
<path d="M105.839 58.0297V54.9749C105.839 54.9749 105.905 54.842 105.972 54.842C106.038 54.842 106.104 54.9085 106.104 54.9749V58.0297C106.104 58.1459 105.822 58.1459 105.822 58.0297H105.839Z" fill="#5B5651"/>
<path d="M110.056 60.4699V57.415C110.056 57.415 110.123 57.2822 110.189 57.2822C110.255 57.2822 110.322 57.3486 110.322 57.415V60.4699C110.322 60.5861 110.04 60.5861 110.04 60.4699H110.056Z" fill="#5B5651"/>
<path d="M114.29 62.9103V59.8555C114.29 59.8555 114.356 59.7227 114.422 59.7227C114.489 59.7227 114.555 59.7891 114.555 59.8555V62.9103C114.555 63.0265 114.273 63.0265 114.273 62.9103H114.29Z" fill="#5B5651"/>
<path d="M118.506 65.3512V62.2964C118.506 62.2964 118.573 62.1636 118.639 62.1636C118.706 62.1636 118.772 62.23 118.772 62.2964V65.3512C118.772 65.4675 118.49 65.4675 118.49 65.3512H118.506Z" fill="#5B5651"/>
<path d="M118.922 62.6946C118.922 62.6946 118.823 62.6946 118.773 62.6613L54.9365 25.804C54.8369 25.7542 54.7871 25.6545 54.7871 25.5549C54.7871 25.4553 54.8369 25.3557 54.9365 25.3059L63.2875 20.4912C63.3872 20.4414 63.4868 20.4414 63.5864 20.4912L127.423 57.3486C127.556 57.4316 127.605 57.6142 127.539 57.747C127.456 57.8964 127.273 57.9297 127.14 57.8632L63.4369 21.0889L55.6836 25.5715L119.088 62.1799C119.221 62.2629 119.271 62.4455 119.204 62.5783C119.155 62.6779 119.055 62.7277 118.955 62.7277L118.922 62.6946Z" fill="#5B5651"/>
<defs>
<linearGradient id="paint0_linear_692_16267" x1="2.93799" y1="39.2355" x2="130.494" y2="39.2355" gradientUnits="userSpaceOnUse">
<stop stop-color="#DED3C9"/>
<stop offset="1" stop-color="#CEC4B7"/>
</linearGradient>
<linearGradient id="paint1_linear_692_16267" x1="0" y1="66.9287" x2="133.434" y2="66.9287" gradientUnits="userSpaceOnUse">
<stop stop-color="#CEC4B7"/>
<stop offset="1" stop-color="#DED3C9"/>
</linearGradient>
<linearGradient id="paint2_linear_692_16267" x1="9.99414" y1="35.5996" x2="123.439" y2="35.5996" gradientUnits="userSpaceOnUse">
<stop stop-color="#DED3C9"/>
<stop offset="1" stop-color="#CEC4B7"/>
</linearGradient>
<linearGradient id="paint3_linear_692_16267" x1="7.37061" y1="53.9123" x2="126.061" y2="53.9123" gradientUnits="userSpaceOnUse">
<stop stop-color="#CEC4B7"/>
<stop offset="1" stop-color="#DED3C9"/>
</linearGradient>
<linearGradient id="paint4_linear_692_16267" x1="51.8638" y1="42.9715" x2="85.3841" y2="42.9715" gradientUnits="userSpaceOnUse">
<stop stop-color="#CEC4B7"/>
<stop offset="1" stop-color="#DED3C9"/>
</linearGradient>
<linearGradient id="paint5_linear_692_16267" x1="64.1504" y1="35.5493" x2="73.7467" y2="35.5493" gradientUnits="userSpaceOnUse">
<stop stop-color="#CEC4B7"/>
<stop offset="1" stop-color="#DED3C9"/>
</linearGradient>
</defs>
</svg>
