<?xml version="1.0" encoding="utf-8"?>
<!-- Generator: Adobe Illustrator 27.5.0, SVG Export Plug-In . SVG Version: 6.00 Build 0)  -->
<svg version="1.1" id="Artwork" xmlns="http://www.w3.org/2000/svg" xmlns:xlink="http://www.w3.org/1999/xlink" x="0px" y="0px"
	 viewBox="0 0 283.465 259.8815" style="enable-background:new 0 0 283.465 259.8815;" xml:space="preserve">
<style type="text/css">
	.st0{fill:#192D38;}
</style>
<g>
	<path class="st0" d="M47.2441,118.1485c0-26.0923,21.1519-47.2443,47.2441-47.2443c0,0,47.2441,0,47.2441,0v47.2443H47.2441z
		 M283.4646,118.1485V70.9042c0,0-47.244,0-47.2441,0c-26.0922,0-47.2441,21.152-47.2441,47.2443H283.4646z M0,165.3928v47.2443
		h47.2441c0,0,0-94.4887,0-94.4887C21.1519,118.1485,0,139.3005,0,165.3928z M94.4882,259.8815
		c26.0922,0,47.2441-21.152,47.2441-47.2443H47.2441v47.2443C47.2441,259.8815,94.4881,259.8815,94.4882,259.8815z
		 M188.9764,259.8815v-141.733h-47.2441v94.4887C141.7323,238.7295,162.8842,259.8815,188.9764,259.8815z"/>
	<path class="st0" d="M272.0689,35.9802c7.6237,0,11.3957-3.1131,11.3957-8.6786v-0.211c0-4.0356-2.2947-6.7789-7.5444-7.3593
		l-6.9113-0.7386c-2.0048-0.2115-2.9806-1.24-2.9806-3.0599v-1.6093c0-0.6065,0.3959-0.9762,0.9758-0.9762h8.9427
		c0.6065,0,0.9758,0.3698,0.9758,0.9762v2.9805h6.1727c-0.3693-5.6711-4.1413-8.6254-11.6595-8.6254
		c-7.1223,0-11.1847,2.7695-11.1847,8.2566v0.1051c0,3.9833,2.6117,6.8583,6.753,7.2803l7.8082,0.7918
		c2.0048,0.2106,2.9017,1.2395,2.9017,3.1649v2.0047c0,0.5808-0.3693,0.9496-0.9496,0.9496h-9.6019
		c-0.5804,0-0.9758-0.3688-0.9758-0.9496v-2.9805h-6.4103C259.9345,32.8671,264.2345,35.9802,272.0689,35.9802 M249.5417,6.4629
		h6.7264V0h-6.7264V6.4629z M249.6472,35.4522h6.5159V9.2057h-6.5159V35.4522z M238.0802,35.4522h6.5158V0h-6.5158V35.4522z
		 M226.7247,14.3235v5.9087h-9.8396c-5.1703,0-8.3091,2.8488-8.3091,7.5703c0,5.3816,4.194,8.1777,9.813,8.1777
		c3.8247,0,6.9641-1.5038,8.3357-4.7485H216.252c-0.5803,0-0.9758-0.3688-0.9758-0.9496v-6.3041h11.4485v11.4742h6.5154V16.9875
		c0-5.5922-4.59-8.3089-11.4485-8.3089c-7.0696,0-12.3454,3.0071-12.4509,8.9158h5.9355v-3.2709
		c0-0.6065,0.3954-0.9762,0.9758-0.9762h9.523C226.3554,13.3473,226.7247,13.7171,226.7247,14.3235 M190.1373,6.1725h5.0381
		L199.3172,0h-7.2017L190.1373,6.1725z M186.497,20.2322v-5.9087c0-0.6065,0.3693-0.9762,0.9496-0.9762h10.8415
		c0.6069,0,0.9762,0.3698,0.9762,0.9762v5.9087H186.497z M193.0918,35.9802c7.2806,0,11.4746-4.1943,12.477-9.18h-6.4892v3.4819
		c0,0.5808-0.3693,0.9496-0.9496,0.9496h-10.6833c-0.5803,0-0.9496-0.3688-0.9496-0.9496v-6.3041h19.23v-2.374
		c0-3.6663-0.8969-6.8322-2.7434-9.0475c-2.1365-2.5589-5.7767-3.8778-10.024-3.8778c-4.3789,0-8.0453,1.2661-10.3139,3.8246
		c-2.0048,2.3213-2.981,5.5926-2.981,9.6544v0.3431c0,4.0888,0.9762,7.2803,2.981,9.575
		C184.967,34.6613,188.5807,35.9802,193.0918,35.9802 M149.0245,35.4522h6.2035V22.5535c0-0.5803,0.3693-0.9496,0.9496-0.9496
		h11.3122l5.4602,13.8483h6.5994l-5.935-14.8506c-1.0024-2.5057-1.8465-3.5347-3.4293-3.9306
		c-0.7125-0.1844-1.5566-0.2372-2.6379-0.2372h-11.3696c-0.5803,0-0.9496-0.3693-0.9496-0.9496V5.1701h13.9809
		c0.5803,0,0.9763,0.3693,0.9763,0.9496V16.671c5.3286-1.9254,6.753-4.6687,6.753-7.9657c0-5.4343-3.7458-8.7052-10.6044-8.7052
		h-17.3092L149.0245,35.4522z M133.7169,35.9802c7.6237,0,11.3957-3.1131,11.3957-8.6786v-0.211
		c0-4.0356-2.2947-6.7789-7.5444-7.3593l-6.9113-0.7386c-2.0048-0.2115-2.9806-1.24-2.9806-3.0599v-1.6093
		c0-0.6065,0.3955-0.9762,0.9758-0.9762h8.9427c0.6065,0,0.9758,0.3698,0.9758,0.9762v2.9805h6.1727
		c-0.3693-5.6711-4.1413-8.6254-11.6595-8.6254c-7.1223,0-11.1847,2.7695-11.1847,8.2566v0.1051
		c0,3.9833,2.6118,6.8583,6.753,7.2803l7.8082,0.7918c2.0048,0.2106,2.9017,1.2395,2.9017,3.1649v2.0047
		c0,0.5808-0.3693,0.9496-0.9496,0.9496h-9.6019c-0.5803,0-0.9758-0.3688-0.9758-0.9496v-2.9805h-6.4103
		C121.5826,32.8671,125.8826,35.9802,133.7169,35.9802 M93.9379,35.4522h6.5154V9.2057h-6.5154V35.4522z M111.2425,14.93v20.5221
		h6.5158V16.2228c0-4.537-3.2182-7.4914-8.6789-7.4914c-4.3262,0-7.2012,1.8731-8.6257,5.2495h9.8391
		C110.8732,13.9809,111.2425,14.3497,111.2425,14.93 M82.4895,6.4629h6.7269V0h-6.7269V6.4629z M82.595,35.4522h6.5154V9.2057
		H82.595V35.4522z M61.7827,21.3663l10.7365,14.0859h7.465L69.3009,21.6305c-0.2638-0.3698-0.2638-0.7386,0.0528-1.1083
		l10.525-11.316h-7.043L61.7827,21.3663z M61.7827,0h-6.5154v35.4521h6.5154V0z M45.0588,1.5038h-6.4892v6.6734
		c0,0.6331-0.3693,1.029-0.9758,1.029h-3.8513v4.4843h4.8271v14.8506c0,4.4315,2.6379,6.9111,7.2017,6.9111h5.5923v-4.6159h-5.3552
		c-0.5803,0-0.9496-0.3693-0.9496-0.9496V13.6905h6.3048V9.2062h-6.3048V1.5038z M28.6214,35.4522h7.0168L24.5063,2.6117
		C23.8204,0.6336,22.9236,0,21.288,0h-6.964c-1.5566,0-2.4007,0.6335-3.0866,2.6117L0,35.4522h6.8585L9.97,25.4023h15.5474
		L28.6214,35.4522z M11.5706,20.2322l6.1822-19.9684l6.1676,19.9684H11.5706z"/>
</g>
</svg>
