<svg width="70" height="70" viewBox="0 0 70 70" fill="none" xmlns="http://www.w3.org/2000/svg">
<path d="M17.9895 45.0613V24.9321H22.6811C25.3676 24.9321 27.4578 25.6529 28.9518 27.0944C30.9175 28.9816 31.9004 31.6156 31.9004 35.0033C31.9004 38.3909 31.0682 40.9202 29.4105 42.7352C27.9951 44.2816 25.8852 45.0548 23.0742 45.0548H17.9895V45.0613ZM23.4281 40.1994C25.3741 40.1011 26.3505 38.4237 26.3505 35.1671C26.3505 33.5617 26.1015 32.2906 25.61 31.3601C25.112 30.4231 24.4437 29.9513 23.605 29.9513H23.4346V40.1994H23.4281Z" fill="white"/>
<path d="M38.9901 45.0614H33.5515V24.9387H38.8197C41.4472 24.9387 43.3933 25.4695 44.658 26.5441C46.1519 27.8021 46.8989 29.5582 46.8989 31.7992C46.8989 34.2432 46.106 36.0648 44.5138 37.2574C43.4261 38.0633 41.8666 38.4696 39.8353 38.4696H38.9901V45.0679V45.0614ZM38.9901 33.9418L39.2391 33.9549C39.9009 33.9549 40.4251 33.7518 40.8182 33.3455C41.2114 32.9393 41.4079 32.3889 41.4079 31.6812C41.4079 30.9735 41.2179 30.4231 40.8313 29.9841C40.4513 29.5386 39.9598 29.3223 39.3701 29.3223H38.9901V33.9353V33.9418Z" fill="white"/>
<path d="M65.6592 45.0614H60.4172L59.1657 38.0109C58.9233 36.648 58.7398 35.462 58.6218 34.466C58.5629 33.968 58.5105 33.5552 58.4646 33.2276C58.4187 32.9 58.3925 32.6444 58.3729 32.4741C58.327 32.8279 58.2615 33.4962 58.1763 34.466C58.1304 34.964 58.078 35.4816 58.019 36.0321C57.96 36.5759 57.8814 37.1591 57.7962 37.7685L56.7675 45.0679H51.4731L46.9912 24.9387H52.3642L53.2488 30.4756C53.5896 32.6837 53.8254 34.4201 53.9565 35.6782L54.14 37.5195L54.3103 35.9403C54.4938 34.0991 54.7297 32.3496 55.0114 30.6852L56.0271 24.9387H60.7055L61.6163 29.7744C62.0488 32.0219 62.4288 34.6888 62.7499 37.7685C62.8482 36.3859 62.9465 35.1606 63.0644 34.0925C63.1758 33.0245 63.3003 32.0547 63.4445 31.1832L64.4339 24.9387H69.7414L65.6592 45.0679V45.0614Z" fill="white"/>
<path d="M24.9681 62.2092C28.3623 63.4935 31.8351 64.0963 35.2555 64.0963C45.1038 64.0963 54.487 59.0443 59.8469 50.5654C60.7184 49.1894 62.5399 48.7766 63.916 49.6481C65.292 50.5196 65.7048 52.3412 64.8333 53.7172C58.3726 63.939 47.1154 69.9935 35.2555 70.0001C31.1405 70.0001 26.9535 69.2662 22.8844 67.7264C21.3642 67.1497 20.591 65.4461 21.1676 63.9259C21.7443 62.4058 23.4479 61.6326 24.9681 62.2092Z" fill="white"/>
<path d="M3.52192 49.7332C1.39892 45.1596 0.258789 40.1339 0.258789 34.9902C0.258789 30.8752 0.992666 26.6882 2.5325 22.6191C7.82689 8.62304 21.1284 0 35.2621 0C39.377 0 43.5641 0.733876 47.6331 2.27371C55.1488 5.11092 61.1312 10.2808 65.0431 16.6367C65.8949 18.0258 65.4624 19.8409 64.0798 20.6927C62.6907 21.5445 60.8757 21.112 60.0239 19.7295C56.7673 14.4416 51.8136 10.1629 45.5495 7.79088C42.1553 6.5066 38.6825 5.90377 35.2621 5.90377C23.5135 5.90377 12.4464 13.0722 8.04312 24.7159C6.75884 28.1101 6.15601 31.5829 6.15601 35.0033C6.15601 39.2689 7.10612 43.456 8.86873 47.2629C9.55674 48.7372 8.9146 50.4933 7.43374 51.1813C5.95944 51.8693 4.20338 51.2272 3.51537 49.7463L3.52192 49.7332Z" fill="white"/>
<path d="M56.3411 47.8921C56.2362 47.82 56.1183 47.7676 55.9938 47.7479H55.6858C55.463 47.7872 55.2534 47.9117 55.1158 48.1149L55.0961 48.1476C55.0961 48.1476 55.0633 48.1935 55.0502 48.2131C54.9978 48.2918 54.9585 48.3442 54.9585 48.3442C52.7634 51.6073 49.7296 54.2938 46.2437 56.1089C42.7578 57.9305 38.8132 58.8675 34.8817 58.8019C32.1428 58.7561 29.4104 58.2319 26.8418 57.2621C25.7148 56.8231 24.614 56.312 23.5525 55.7288C22.5041 55.126 21.495 54.4511 20.5383 53.7107C18.6447 52.2101 16.9672 50.4279 15.6109 48.4228C12.8785 44.4258 11.3976 39.5901 11.4566 34.7478C11.4894 31.963 12.0267 29.1913 12.9965 26.5834C13.4355 25.4564 13.9466 24.3556 14.5297 23.3007C15.1326 22.2523 15.8075 21.2432 16.5479 20.2865C18.0484 18.3928 19.8307 16.7154 21.8357 15.3591C25.8327 12.6267 30.6685 11.1458 35.5108 11.2048C38.2104 11.2507 40.91 11.729 43.4524 12.6725C43.4524 12.6725 43.5244 12.6988 43.6751 12.7512L43.7144 12.7643C44.1731 12.9215 44.6777 12.6857 44.8349 12.227C44.9922 11.7814 44.7694 11.2965 44.3369 11.1196C44.3238 11.1196 44.3107 11.1065 44.2976 11.1065C44.1404 11.0475 44.0552 11.0213 44.0552 11.0213C41.3293 10.0122 38.4332 9.4946 35.5304 9.44873C35.4387 9.44873 35.3469 9.44873 35.2552 9.44873C30.1443 9.44873 25.0596 11.0344 20.8463 13.911C18.6971 15.3656 16.7838 17.1675 15.1719 19.2054C14.3725 20.2341 13.6517 21.3153 13.003 22.4423C12.374 23.5824 11.8236 24.7619 11.3583 25.9675C10.3099 28.7654 9.73987 31.7402 9.70056 34.7347C9.64158 39.9374 11.2338 45.1269 14.1628 49.4188C15.624 51.568 17.4194 53.4813 19.4572 55.0932C20.4859 55.8926 21.5671 56.6134 22.6941 57.2555C23.8342 57.8846 25.0137 58.435 26.2193 58.9002C28.9714 59.9421 31.9069 60.5056 34.8555 60.5514C39.0819 60.617 43.3082 59.6079 47.0562 57.6618C50.8042 55.7157 54.0608 52.8261 56.4197 49.3205C56.4197 49.3205 56.459 49.2681 56.518 49.1829C56.518 49.1829 56.5507 49.137 56.5639 49.1108C56.5704 49.1043 56.577 49.0912 56.5835 49.0846C56.649 48.9863 56.6883 48.8815 56.708 48.7701V48.4621C56.6687 48.2393 56.5442 48.0362 56.3411 47.8921Z" fill="white"/>
</svg>
