<svg width="30" height="30" viewBox="0 0 30 30" fill="none" xmlns="http://www.w3.org/2000/svg">
<path d="M2.9179 15.7436C2.15843 15.7436 1.79231 14.8128 2.34824 14.2954L14.4369 3.04415C14.758 2.74538 15.2553 2.74538 15.5763 3.04415L27.6516 14.2829C28.2092 14.8019 27.8389 15.7355 27.077 15.7311L25.1416 15.7198C24.6779 15.7171 24.3006 16.0922 24.3006 16.5559V26.3439C24.3006 26.8057 23.9263 27.18 23.4645 27.18H16.7571H14.7011H12.6451H6.00203C5.54025 27.18 5.1659 26.8057 5.1659 26.3439V16.5797C5.1659 16.1179 4.79154 15.7436 4.32976 15.7436H2.9179Z" stroke="white" stroke-width="1.5"/>
<path d="M18.6053 27.18V19.8186C18.6053 19.2663 18.1576 18.8186 17.6053 18.8186H12.0801C11.5278 18.8186 11.0801 19.2663 11.0801 19.8186V27.18" stroke="white" stroke-width="1.5"/>
</svg>
