<svg width="30" height="30" viewBox="0 0 30 30" fill="none" xmlns="http://www.w3.org/2000/svg">
<path fill-rule="evenodd" clip-rule="evenodd" d="M7.53354 10.375C8.91425 10.375 10.0335 9.25571 10.0335 7.875C10.0335 6.49429 8.91425 5.375 7.53354 5.375C6.15283 5.375 5.03354 6.49429 5.03354 7.875C5.03354 9.25571 6.15283 10.375 7.53354 10.375ZM10.0335 17.375V12.375H5.03354V17.375H10.0335ZM7.174 20.1252L9.77208 24.6252H4.57593L7.174 20.1252ZM12.674 7.0752C12.2598 7.0752 11.924 7.41098 11.924 7.8252C11.924 8.23941 12.2598 8.5752 12.674 8.5752H24.674C25.0882 8.5752 25.424 8.23941 25.424 7.8252C25.424 7.41098 25.0882 7.0752 24.674 7.0752H12.674ZM11.9241 14.7C11.9241 14.2858 12.2599 13.95 12.6741 13.95H24.6741C25.0883 13.95 25.4241 14.2858 25.4241 14.7C25.4241 15.1142 25.0883 15.45 24.6741 15.45H12.6741C12.2599 15.45 11.9241 15.1142 11.9241 14.7ZM12.6741 21.75C12.2599 21.75 11.9241 22.0858 11.9241 22.5C11.9241 22.9142 12.2599 23.25 12.6741 23.25H24.6741C25.0883 23.25 25.4241 22.9142 25.4241 22.5C25.4241 22.0858 25.0883 21.75 24.6741 21.75H12.6741Z" fill="#142D50"/>
</svg>
