<svg width="199" height="67" viewBox="0 0 199 67" fill="none" xmlns="http://www.w3.org/2000/svg">
<path d="M75.3254 23.0044H78.131C80.1743 23.0044 81.6114 23.249 82.8799 24.4845C83.9359 25.5068 84.567 27.1374 84.567 28.9875C84.567 30.9882 83.8234 32.6439 82.5737 33.6223C81.2428 34.6634 79.8681 34.6822 78.1685 34.6822H75.3317V23.0044H75.3254ZM77.5437 25.1807V32.4997H78.7121C79.9306 32.4997 80.7866 32.3366 81.4677 31.6028C82.0051 31.0196 82.33 30.0725 82.33 28.9374C82.33 26.4977 80.9866 25.1807 78.4559 25.1807H77.5499H77.5437Z" fill="white"/>
<path d="M86.8289 23.0044H93.1773V25.1807H89.0471V27.2628H93.1773V29.4454H89.0471V32.4997H93.1773V34.6822H86.8289V23.0044Z" fill="white"/>
<path d="M95.3832 23.0043H98.0888C99.5947 23.0043 100.651 23.2301 101.376 23.9451C101.944 24.497 102.313 25.3938 102.313 26.3847C102.313 27.6203 101.813 28.5485 100.838 29.1505C99.8509 29.7526 98.8136 29.7338 97.5952 29.7338V34.6759H95.377V22.998L95.3832 23.0043ZM97.6014 27.5763H98.6387C99.6447 27.5763 100.145 27.1875 100.145 26.391C100.145 25.5945 99.5947 25.1869 98.5387 25.1869H97.6014V27.5763Z" fill="white"/>
<path d="M106.562 23.0044H108.799L113.285 34.6822H110.986L110.08 32.2739H105.331L104.375 34.6822H102.075L106.562 23.0044ZM107.699 26.0963L106.162 30.0976H109.242L107.705 26.0963H107.699Z" fill="white"/>
<path d="M115.316 23.0043H118.022C119.496 23.0043 120.533 23.1862 121.308 23.9451C121.889 24.5158 122.246 25.3938 122.246 26.3847C122.246 27.915 121.483 28.9561 120.009 29.4892L122.764 34.6759H120.352L117.747 29.7338H117.534V34.6759H115.316V22.998V23.0043ZM117.534 27.5763H118.553C119.559 27.5763 120.077 27.1687 120.077 26.3722C120.077 25.5757 119.54 25.1869 118.49 25.1869H117.534V27.5763Z" fill="white"/>
<path d="M123.833 23.0044H130.268V25.1807H128.131V34.6822H125.907V25.1807H123.833V23.0044Z" fill="white"/>
<path d="M133.074 23.0044H135.242L137.929 31.1513L140.653 23.0044H142.79L144.752 34.6822H142.615L141.366 27.2942L138.885 34.6822H136.942L134.499 27.2942L133.218 34.6822H131.062L133.074 23.0044Z" fill="white"/>
<path d="M146.715 23.0044H153.063V25.1807H148.933V27.2628H153.063V29.4454H148.933V32.4997H153.063V34.6822H146.715V23.0044Z" fill="white"/>
<path d="M155.288 23.0044H157.406L162.398 30.6809V23.0044H164.617V34.6822H162.48L157.506 27.0182V34.6822H155.288V23.0044Z" fill="white"/>
<path d="M166.285 23.0044H172.721V25.1807H170.578V34.6822H168.359V25.1807H166.285V23.0044Z" fill="white"/>
<path d="M190.641 28.8747C190.641 32.3053 187.967 34.9582 184.63 34.9582C181.294 34.9582 178.538 32.2238 178.538 28.8246C178.538 25.4253 181.294 22.7097 184.599 22.7097C187.905 22.7097 190.641 25.3125 190.641 28.8747ZM180.775 28.8747C180.775 31.2517 182.556 32.8259 184.618 32.8259C186.68 32.8259 188.411 31.0886 188.411 28.8559C188.411 26.6232 186.805 24.8358 184.587 24.8358C182.493 24.8358 180.781 26.4602 180.781 28.8685" fill="white"/>
<path d="M192.922 23.0044H198.69V25.1807H195.078V27.2628H198.69V29.4454H195.078V34.6822H192.922V23.0044Z" fill="white"/>
<path d="M75.2941 39.7809H77.9997C79.5056 39.7809 80.5616 40.0067 81.2864 40.7217C81.855 41.2736 82.2237 42.1704 82.2237 43.1613C82.2237 44.3969 81.7238 45.3251 80.749 45.9271C79.7618 46.5292 78.7245 46.5104 77.5061 46.5104V51.4525H75.2878V39.7747L75.2941 39.7809ZM77.5123 44.353H78.5496C79.5556 44.353 80.0554 43.9641 80.0554 43.1676C80.0554 42.3711 79.5056 41.9635 78.4496 41.9635H77.5123V44.353Z" fill="white"/>
<path d="M84.4607 39.781H86.6789V47.6833C86.6789 48.9502 87.2975 49.6024 88.366 49.6024C88.9971 49.6024 89.5657 49.339 89.8407 48.9063C90.0843 48.53 90.1156 47.9969 90.1156 47.376V39.781H92.3338V47.2129C92.3338 48.4986 92.2713 49.477 91.3965 50.4992C90.653 51.3647 89.6782 51.7348 88.416 51.7348C87.2163 51.7348 86.2603 51.3898 85.5292 50.631C84.5919 49.6526 84.4607 48.5989 84.4607 47.0875V39.7873V39.781Z" fill="white"/>
<path d="M95.0769 51.4588V39.781H97.2014C98.4136 39.781 99.4071 39.9127 100.132 40.3517C101.007 40.8723 101.525 41.7817 101.525 42.7914C101.525 43.7196 101.107 44.4157 100.313 45.0366C101.675 45.6889 102.356 46.6296 102.356 48.047C102.356 49.0066 102.031 49.8031 101.35 50.4553C100.576 51.2205 99.732 51.4651 98.5448 51.4651H95.0769V51.4588ZM97.2951 41.8946V44.353H97.7825C98.8198 44.353 99.3571 43.8952 99.3571 43.0862C99.3571 42.3398 98.8572 41.9008 97.8637 41.9008H97.2951V41.8946ZM97.2951 46.3349V49.3453H98.0387C99.4321 49.3453 100.176 48.9564 100.176 47.9655C100.176 46.9746 99.4009 46.3411 97.845 46.3411H97.2951V46.3349Z" fill="white"/>
<path d="M104.637 39.781H106.855V49.3453H110.08V51.4588H104.637V39.781Z" fill="white"/>
<path d="M113.985 39.781H111.767V51.4588H113.985V39.781Z" fill="white"/>
<path d="M127.269 49.5082C125.732 51.0197 124.401 51.7535 122.214 51.7535C118.571 51.7535 116.059 49.2009 116.059 45.6073C116.059 42.0136 118.909 39.4924 122.252 39.4924C124.182 39.4924 126.044 40.3391 127.325 41.838L125.769 43.3369C124.713 42.2143 123.564 41.6311 122.202 41.6311C120.015 41.6311 118.234 43.3244 118.234 45.6136C118.234 48.0219 119.952 49.6337 122.252 49.6337C123.695 49.6337 124.664 49.0504 125.769 47.9403L127.275 49.5208L127.269 49.5082Z" fill="white"/>
<path d="M133.237 39.781H135.424L137.092 47.2317L139.179 39.781H141.028L143.134 47.2317L144.784 39.781H146.971L144.346 51.4588H142.228L140.072 43.914L137.979 51.4588H135.873L133.237 39.781Z" fill="white"/>
<path d="M160.161 45.6514C160.161 49.0819 157.487 51.7349 154.15 51.7349C150.814 51.7349 148.058 49.0004 148.058 45.6012C148.058 42.202 150.814 39.4863 154.119 39.4863C157.425 39.4863 160.161 42.0891 160.161 45.6514ZM150.295 45.6514C150.295 48.0283 152.076 49.6025 154.138 49.6025C156.2 49.6025 157.931 47.859 157.931 45.6325C157.931 43.4061 156.325 41.6124 154.107 41.6124C152.013 41.6124 150.301 43.2368 150.301 45.6451" fill="white"/>
<path d="M162.542 39.7809H165.248C166.722 39.7809 167.759 39.9628 168.534 40.7217C169.115 41.2924 169.472 42.1704 169.472 43.1613C169.472 44.6916 168.709 45.7327 167.235 46.2658L169.99 51.4525H167.578L164.973 46.5104H164.76V51.4525H162.542V39.7747V39.7809ZM164.76 44.353H165.779C166.785 44.353 167.303 43.9453 167.303 43.1488C167.303 42.3523 166.766 41.9635 165.716 41.9635H164.76V44.353Z" fill="white"/>
<path d="M171.99 39.781H174.208V43.8011L177.37 39.781H180.044L175.958 44.9865L180.431 51.4588H177.807L174.208 46.2722V51.4588H171.99V39.781Z" fill="white"/>
<path d="M183.025 48.091C183.562 49.1008 184.174 49.6213 184.955 49.6213C185.737 49.6213 186.299 49.1321 186.299 48.53C186.299 48.1098 186.024 47.6207 185.555 47.2255C183.143 45.1935 181.712 44.0897 181.712 42.4277C181.712 40.7657 183.156 39.4863 184.905 39.4863C186.38 39.4863 187.349 40.2828 188.273 41.3553L186.618 42.8166C186.068 42.0389 185.499 41.6124 184.868 41.6124C184.287 41.6124 183.881 41.9574 183.881 42.4277C183.881 42.8981 184.218 43.1741 184.562 43.4688C186.73 45.3879 188.467 46.2973 188.467 48.4297C188.467 50.3802 187.011 51.7474 184.905 51.7474C183.206 51.7474 182.019 50.9195 181.163 49.2074L183.025 48.0848V48.091Z" fill="white"/>
<path d="M16.9082 43.13V23.8635H21.3821C23.944 23.8635 25.9373 24.5534 27.3619 25.9332C29.2365 27.7394 30.1738 30.2606 30.1738 33.503C30.1738 36.7455 29.3802 39.1663 27.7993 40.9036C26.4497 42.3837 24.4376 43.1238 21.757 43.1238H16.9082V43.13ZM22.0945 38.4765C23.9503 38.3824 24.8813 36.7768 24.8813 33.6598C24.8813 32.1233 24.6438 30.9066 24.1752 30.016C23.7003 29.1192 23.063 28.6676 22.2632 28.6676H22.1007V38.4765H22.0945Z" fill="white"/>
<path d="M36.9345 43.1301H31.7483V23.8699H36.7721C39.2777 23.8699 41.1335 24.3779 42.3395 25.4064C43.7642 26.6106 44.4765 28.2914 44.4765 30.4363C44.4765 32.7756 43.7204 34.5191 42.202 35.6606C41.1648 36.432 39.6776 36.8208 37.7406 36.8208H36.9345V43.1364V43.1301ZM36.9345 32.4871L37.172 32.4997C37.8031 32.4997 38.303 32.3052 38.6779 31.9164C39.0528 31.5276 39.2402 31.0007 39.2402 30.3234C39.2402 29.6461 39.059 29.1192 38.6904 28.699C38.328 28.2726 37.8593 28.0656 37.297 28.0656H36.9345V32.4808V32.4871Z" fill="white"/>
<path d="M62.3659 43.1301H57.3671L56.1737 36.3818C55.9425 35.0773 55.7675 33.9421 55.6551 32.9888C55.5988 32.5122 55.5488 32.1171 55.5051 31.8035C55.4614 31.4899 55.4364 31.2453 55.4176 31.0823C55.3739 31.4209 55.3114 32.0606 55.2302 32.9888C55.1864 33.4655 55.1364 33.961 55.0802 34.4878C55.024 35.0083 54.949 35.5665 54.8677 36.1498L53.8867 43.1364H48.8379L44.564 23.8699H49.6877L50.5313 29.1694C50.8562 31.283 51.0812 32.9449 51.2061 34.1491L51.3811 35.9114L51.5435 34.4C51.7185 32.6376 51.9434 30.9631 52.2121 29.3701L53.1807 23.8699H57.6421L58.5106 28.4983C58.923 30.6495 59.2854 33.2021 59.5916 36.1498C59.6853 34.8264 59.7791 33.6536 59.8915 32.6314C59.9978 31.6091 60.1165 30.6809 60.254 29.8468L61.1975 23.8699H66.2588L62.3659 43.1364V43.1301Z" fill="white"/>
<path d="M75.8816 18.1751V13.647H76.8376C77.7874 13.647 78.2185 14.1111 78.2185 14.7508C78.2185 15.1459 78.0311 15.4908 77.6374 15.7041C78.2685 15.9173 78.5872 16.3062 78.5872 16.8769C78.5872 17.5542 78.0623 18.1751 77.1188 18.1751H75.8816ZM76.3315 15.5473H76.6314C76.9688 15.5473 77.2375 15.5034 77.425 15.3779C77.6249 15.2462 77.7436 15.0079 77.7436 14.7508C77.7436 14.3494 77.4437 14.086 76.9188 14.086H76.3315V15.541V15.5473ZM76.3315 17.7361H76.8814C77.0751 17.7361 77.2688 17.7047 77.4187 17.6922C77.7187 17.6671 78.1186 17.341 78.1186 16.8831C78.1186 16.5884 77.9561 16.3062 77.6812 16.1556C77.4187 16.0114 77.0688 15.9863 76.6439 15.9863H76.3377V17.7361H76.3315Z" fill="white"/>
<path d="M86.3541 13.647L88.4598 18.1751H87.9787L87.2663 16.6887H85.3168L84.6107 18.1751H84.1108L86.2478 13.647H86.3541ZM86.2978 14.6065L85.5168 16.2497H87.0601L86.2916 14.6065H86.2978Z" fill="white"/>
<path d="M94.1897 13.647H94.6396V17.7298H96.3767V18.1751H94.1897V13.647Z" fill="white"/>
<path d="M101.388 14.086V13.647H103.862V14.086H102.856V18.1751H102.406V14.086H101.388Z" fill="white"/>
<path d="M109.923 13.647H109.473V18.1751H109.923V13.647Z" fill="white"/>
<path d="M115.784 18.1751L116.428 13.647H116.503L118.334 17.3598L120.152 13.647H120.227L120.871 18.1751H120.427L119.99 14.9327L118.39 18.1751H118.278L116.659 14.9076L116.222 18.1751H115.784Z" fill="white"/>
<path d="M131.35 15.9111C131.35 17.2407 130.312 18.2881 128.975 18.2881C127.638 18.2881 126.594 17.1968 126.594 15.9299C126.594 14.5815 127.638 13.5342 128.938 13.5342C130.306 13.5342 131.35 14.5627 131.35 15.9111ZM127.063 15.9299C127.063 17.0463 127.944 17.8491 128.963 17.8491C129.981 17.8491 130.881 17.04 130.881 15.9049C130.881 14.7697 129.962 13.9732 128.963 13.9732C127.963 13.9732 127.063 14.7697 127.063 15.9299Z" fill="white"/>
<path d="M137.304 13.647H138.342C138.81 13.647 139.173 13.6783 139.391 13.7599C139.854 13.9355 140.135 14.3369 140.135 14.8511C140.135 15.0769 140.104 15.2086 140.004 15.4156C139.773 15.8859 139.316 16.0741 138.573 16.0741L140.197 18.1814H139.635L138.017 16.0741H137.761V18.1814H137.311V13.6532L137.304 13.647ZM137.754 14.086V15.6225C138.004 15.6225 138.26 15.6288 138.504 15.6288C138.892 15.6288 139.198 15.5912 139.391 15.4344C139.554 15.3027 139.66 15.0832 139.66 14.8511C139.66 14.4121 139.36 14.086 138.679 14.086H137.754Z" fill="white"/>
<path d="M146.127 13.647H148.702V14.086H146.577V15.5034H148.702V15.9487H146.577V17.7298H148.702V18.1751H146.127V13.647Z" fill="white"/>
<path d="M165.129 14.7572C164.735 14.2366 164.167 13.9732 163.517 13.9732C162.448 13.9732 161.549 14.7697 161.549 15.9237C161.549 17.0777 162.405 17.8679 163.542 17.8679C164.173 17.8679 164.704 17.6108 165.123 17.1153L165.479 17.385C165.017 17.9745 164.329 18.2818 163.504 18.2818C161.999 18.2818 161.074 17.2156 161.074 15.886C161.074 14.5565 162.105 13.5342 163.504 13.5342C164.335 13.5342 165.029 13.8603 165.479 14.4875L165.123 14.7572H165.129Z" fill="white"/>
<path d="M171.809 13.647H171.359V18.1751H171.809V13.647Z" fill="white"/>
<path d="M177.42 14.086V13.647H179.9V14.086H178.894V18.1751H178.438V14.086H177.42Z" fill="white"/>
<path d="M186.674 16.0114L185.224 13.647H185.743L186.899 15.5097L188.036 13.647H188.561L187.124 16.0114V18.1751H186.674V16.0114Z" fill="white"/>
<path d="M23.5632 59.5431C26.7999 60.7723 30.1116 61.3493 33.3733 61.3493C42.7648 61.3493 51.7127 56.5139 56.824 48.3984C57.655 47.0813 59.3921 46.6862 60.7043 47.5204C62.0165 48.3545 62.4101 50.098 61.5791 51.4151C55.418 61.1988 44.6831 66.9938 33.3733 67.0001C29.4493 67.0001 25.4565 66.2977 21.5762 64.8238C20.1265 64.2719 19.3892 62.6413 19.9391 61.1863C20.4889 59.7313 22.1135 58.9912 23.5632 59.5431Z" fill="white"/>
<path d="M3.11175 47.6018C1.08724 43.2242 0 38.4138 0 33.4906C0 29.552 0.699832 25.5444 2.16823 21.6497C7.21702 8.25349 19.9015 0 33.3795 0C37.3036 0 41.2964 0.702425 45.1767 2.17626C52.3437 4.89189 58.0486 9.84022 61.779 15.9237C62.5913 17.2533 62.1789 18.9906 60.8604 19.8059C59.5357 20.6212 57.8049 20.2073 56.9926 18.8839C53.8871 13.8227 49.1632 9.72733 43.1897 7.45699C39.9529 6.22775 36.6412 5.65076 33.3795 5.65076C22.1759 5.65076 11.6222 12.5119 7.42322 23.6567C6.19852 26.9054 5.62365 30.2293 5.62365 33.5031C5.62365 37.586 6.52969 41.5936 8.21053 45.2374C8.86663 46.6485 8.25427 48.3293 6.84211 48.9878C5.4362 49.6464 3.7616 49.0317 3.10551 47.6144L3.11175 47.6018Z" fill="white"/>
<path d="M53.4808 45.8394C53.3808 45.7705 53.2683 45.7203 53.1496 45.7015H52.8559C52.6435 45.7391 52.4435 45.8583 52.3123 46.0527L52.2936 46.084C52.2936 46.084 52.2623 46.1279 52.2498 46.1468C52.1999 46.222 52.1624 46.2722 52.1624 46.2722C50.0691 49.3955 47.1761 51.9668 43.8519 53.7041C40.5276 55.4476 36.7661 56.3444 33.0169 56.2817C30.4051 56.2378 27.7994 55.7361 25.35 54.8079C24.2753 54.3877 23.2255 53.8985 22.2133 53.3403C21.2135 52.7633 20.2513 52.1174 19.339 51.4087C17.5332 49.9725 15.9335 48.2666 14.6401 46.3474C12.0345 42.5217 10.6223 37.8933 10.6785 33.2585C10.7098 30.5931 11.2222 27.9402 12.1469 25.4441C12.5656 24.3653 13.053 23.3117 13.6091 22.302C14.184 21.2985 14.8276 20.3327 15.5336 19.417C16.9645 17.6045 18.6641 15.999 20.5762 14.7007C24.3878 12.0854 28.9992 10.6681 33.6168 10.7245C36.1912 10.7684 38.7656 11.2262 41.19 12.1294C41.19 12.1294 41.2587 12.1544 41.4024 12.2046L41.4399 12.2172C41.8773 12.3677 42.3585 12.1419 42.5084 11.7029C42.6584 11.2764 42.4459 10.8123 42.0335 10.643C42.021 10.643 42.0085 10.6304 41.996 10.6304C41.8461 10.574 41.7649 10.5489 41.7649 10.5489C39.1655 9.58306 36.4036 9.0876 33.6356 9.0437C33.5481 9.0437 33.4606 9.0437 33.3731 9.0437C28.4993 9.0437 23.6504 10.5614 19.6327 13.3147C17.5831 14.707 15.7586 16.4317 14.2215 18.3822C13.4591 19.3668 12.7718 20.4016 12.1532 21.4804C11.5533 22.5716 11.0285 23.7005 10.5848 24.8545C9.58506 27.5325 9.04144 30.3798 9.00395 33.246C8.94771 38.2257 10.4661 43.1928 13.2592 47.3007C14.6526 49.3578 16.3647 51.1892 18.308 52.732C19.289 53.4971 20.32 54.187 21.3947 54.8016C22.482 55.4037 23.6067 55.9305 24.7564 56.3758C27.3808 57.373 30.1801 57.9124 32.992 57.9563C37.0222 58.019 41.0525 57.0531 44.6267 55.1905C48.2008 53.3278 51.3063 50.562 53.5558 47.2067C53.5558 47.2067 53.5933 47.1565 53.6495 47.075C53.6495 47.075 53.6807 47.0311 53.6932 47.006C53.6995 46.9997 53.7057 46.9872 53.712 46.9809C53.7745 46.8868 53.812 46.7865 53.8307 46.6798V46.3851C53.7932 46.1718 53.6745 45.9774 53.4808 45.8394Z" fill="white"/>
</svg>
