<svg width="360" height="452" viewBox="0 0 360 452" fill="none" xmlns="http://www.w3.org/2000/svg">
<path d="M48.608 33H41.056V22.328H48.608V24.328H43.328V26.584H48.496V28.584H43.328V31H48.608V33ZM58.0641 33H56.0161V27.048H54.7361V25.272H56.0161V24.856C56.0161 23.176 57.1041 22.168 58.6241 22.168C59.2001 22.168 59.7281 22.296 60.0961 22.488L59.6801 23.96C59.5201 23.848 59.2961 23.768 59.0241 23.768C58.4481 23.768 58.0641 24.152 58.0641 24.856V25.272H59.6321V27.048H58.0641V33ZM62.8481 33H60.8161V22.328H62.8481V33ZM52.8321 33H50.7841V27.048H49.5041V25.272H50.7841V24.856C50.7841 23.208 51.8401 22.168 53.3921 22.168C54.1281 22.168 54.9121 22.36 55.4081 22.888L54.6401 24.088C54.4321 23.88 54.1601 23.768 53.7921 23.768C53.2321 23.768 52.8321 24.136 52.8321 24.856V25.272H54.4001V27.048H52.8321V33ZM72.0998 33H70.0678V32.024C69.5398 32.616 68.6118 33.192 67.3478 33.192C65.6518 33.192 64.8518 32.264 64.8518 30.76V25.272H66.8838V29.96C66.8838 31.032 67.4438 31.384 68.3078 31.384C69.0918 31.384 69.7158 30.952 70.0678 30.504V25.272H72.0998V33ZM77.7494 33.192C75.3974 33.192 73.6214 31.608 73.6214 29.128C73.6214 26.888 75.2694 25.08 77.6214 25.08C79.9254 25.08 81.4934 26.808 81.4934 29.336V29.784H75.7494C75.8774 30.76 76.6614 31.576 77.9734 31.576C78.6294 31.576 79.5414 31.288 80.0374 30.808L80.9334 32.12C80.1654 32.824 78.9494 33.192 77.7494 33.192ZM79.5254 28.408C79.4774 27.672 78.9654 26.696 77.6214 26.696C76.3574 26.696 75.8134 27.64 75.7174 28.408H79.5254ZM90.2091 33H88.1771V28.328C88.1771 27.256 87.6171 26.888 86.7531 26.888C85.9531 26.888 85.3291 27.336 84.9931 27.8V33H82.9611V25.272H84.9931V26.28C85.4891 25.688 86.4331 25.08 87.6971 25.08C89.3931 25.08 90.2091 26.04 90.2091 27.544V33ZM94.8188 33.192C93.3948 33.192 92.6268 32.456 92.6268 31.08V27.048H91.3468V25.272H92.6268V23.16H94.6748V25.272H96.2428V27.048H94.6748V30.536C94.6748 31.016 94.9308 31.384 95.3788 31.384C95.6828 31.384 95.9708 31.272 96.0828 31.16L96.5148 32.696C96.2108 32.968 95.6668 33.192 94.8188 33.192ZM106.831 33.192C103.615 33.192 101.263 30.888 101.263 27.672C101.263 24.456 103.615 22.152 106.831 22.152C110.063 22.152 112.415 24.456 112.415 27.672C112.415 29.176 111.903 30.488 111.023 31.448L111.807 32.36L110.223 33.656L109.359 32.664C108.607 33 107.759 33.192 106.831 33.192ZM106.831 31.176C107.231 31.176 107.599 31.112 107.951 31L106.783 29.624L108.351 28.328L109.535 29.72C109.887 29.144 110.079 28.44 110.079 27.672C110.079 25.672 108.799 24.168 106.831 24.168C104.863 24.168 103.599 25.672 103.599 27.672C103.599 29.656 104.863 31.176 106.831 31.176ZM121.209 33H119.177V32.024C118.649 32.616 117.721 33.192 116.457 33.192C114.761 33.192 113.961 32.264 113.961 30.76V25.272H115.993V29.96C115.993 31.032 116.553 31.384 117.417 31.384C118.201 31.384 118.825 30.952 119.177 30.504V25.272H121.209V33ZM129.899 33H127.867V32.2C127.339 32.824 126.427 33.192 125.419 33.192C124.187 33.192 122.731 32.36 122.731 30.632C122.731 28.824 124.187 28.136 125.419 28.136C126.443 28.136 127.355 28.472 127.867 29.08V28.04C127.867 27.256 127.195 26.744 126.171 26.744C125.339 26.744 124.571 27.048 123.915 27.656L123.147 26.296C124.091 25.464 125.307 25.08 126.523 25.08C128.283 25.08 129.899 25.784 129.899 28.008V33ZM126.235 31.816C126.891 31.816 127.531 31.592 127.867 31.144V30.184C127.531 29.736 126.891 29.512 126.235 29.512C125.435 29.512 124.779 29.928 124.779 30.68C124.779 31.4 125.435 31.816 126.235 31.816ZM133.946 33H131.914V22.328H133.946V33ZM136.969 24.44C136.313 24.44 135.753 23.896 135.753 23.224C135.753 22.552 136.313 22.024 136.969 22.024C137.641 22.024 138.185 22.552 138.185 23.224C138.185 23.896 137.641 24.44 136.969 24.44ZM137.993 33H135.961V25.272H137.993V33ZM142.6 33.192C141.176 33.192 140.408 32.456 140.408 31.08V27.048H139.128V25.272H140.408V23.16H142.456V25.272H144.024V27.048H142.456V30.536C142.456 31.016 142.712 31.384 143.16 31.384C143.464 31.384 143.752 31.272 143.864 31.16L144.296 32.696C143.992 32.968 143.448 33.192 142.6 33.192ZM145.142 36.024L145.446 34.2C145.622 34.28 145.894 34.328 146.086 34.328C146.614 34.328 146.966 34.184 147.158 33.768L147.446 33.112L144.31 25.272H146.486L148.502 30.648L150.518 25.272H152.71L149.078 34.264C148.502 35.72 147.478 36.104 146.15 36.136C145.91 36.136 145.398 36.088 145.142 36.024Z" fill="#142D50"/>
<path d="M54.6695 187.334C53.0127 187.334 51.7238 185.99 51.7632 184.334C52.1329 168.766 55.3782 153.391 61.3441 138.988C67.693 123.66 76.9986 109.733 88.7298 98.0023C100.461 86.2711 114.388 76.9655 129.715 70.6166C145.043 64.2677 161.471 61 178.061 61C194.652 61 211.08 64.2677 226.407 70.6166C241.735 76.9654 255.661 86.2711 267.393 98.0023C279.124 109.733 288.43 123.66 294.778 138.988C300.744 153.391 303.99 168.766 304.359 184.334C304.399 185.99 303.116 187.334 301.459 187.334C277.602 187.334 129.945 187.334 54.6695 187.334Z" fill="#DEF4F9" style="mix-blend-mode:multiply"/>
<path d="M202.545 187.334H149.661C149.661 172.73 161.499 160.892 176.103 160.892C190.706 160.892 202.545 172.73 202.545 187.334Z" fill="#F0FFF7"/>
<path d="M50.3724 181.249C50.1713 185.47 53.6124 188.834 57.7434 188.834C61.9133 188.834 65.2013 185.463 65.4154 181.4C66.0889 168.614 68.9351 156.022 73.8457 144.166C79.5146 130.48 87.8235 118.045 98.2981 107.571C108.773 97.096 121.208 88.787 134.894 83.1182C148.58 77.4494 163.248 74.5317 178.061 74.5317C192.875 74.5317 207.543 77.4494 221.229 83.1182C234.914 88.787 247.35 97.096 257.824 107.571C268.299 118.045 276.608 130.48 282.277 144.166C287.187 156.021 290.034 168.614 290.707 181.399C290.921 185.463 294.209 188.834 298.379 188.834C302.51 188.834 305.951 185.47 305.75 181.249C305.049 166.54 301.811 152.047 296.164 138.414C289.74 122.904 280.324 108.812 268.453 96.9416C256.583 85.0712 242.491 75.655 226.981 69.2308C211.472 62.8065 194.849 59.5 178.061 59.5C161.274 59.5 144.651 62.8065 129.141 69.2308C113.632 75.655 99.5396 85.0712 87.6692 96.9416C75.7987 108.812 66.3825 122.904 59.9583 138.414C54.3114 152.047 51.0734 166.54 50.3724 181.249Z" fill="url(#paint0_linear_881_9015)" stroke="white" stroke-width="3"/>
<circle cx="214.093" cy="112.642" r="7.24866" fill="#142D50"/>
<circle cx="176.239" cy="189.155" r="4.02703" fill="#142D50"/>
<path d="M177.476 186.749L214.093 112.642" stroke="#142D50" stroke-width="1.5" stroke-linecap="round"/>
<path opacity="0.8" d="M52.5631 204.607H47.4751V196.603H49.1791V203.107H52.5631V204.607ZM57.2202 204.751C54.8082 204.751 53.0442 203.023 53.0442 200.611C53.0442 198.199 54.8082 196.471 57.2202 196.471C59.6442 196.471 61.4082 198.199 61.4082 200.611C61.4082 203.023 59.6442 204.751 57.2202 204.751ZM57.2202 203.239C58.6962 203.239 59.6562 202.099 59.6562 200.611C59.6562 199.111 58.6962 197.983 57.2202 197.983C55.7442 197.983 54.7962 199.111 54.7962 200.611C54.7962 202.099 55.7442 203.239 57.2202 203.239ZM70.3016 204.607H68.4896L67.0856 199.111L65.6936 204.607H63.8816L61.5896 196.603H63.4976L64.9016 202.387L66.4256 196.603H67.7576L69.2696 202.387L70.6616 196.603H72.5816L70.3016 204.607Z" fill="#142D50"/>
<path opacity="0.8" d="M289.12 204.607H287.404V201.247H283.624V204.607H281.92V196.603H283.624V199.747H287.404V196.603H289.12V204.607ZM292.401 204.607H290.697V196.603H292.401V204.607ZM297.866 204.763C295.526 204.763 293.606 203.131 293.606 200.611C293.606 198.079 295.526 196.471 297.866 196.471C299.534 196.471 300.578 197.311 301.178 198.259L299.762 199.027C299.402 198.463 298.718 197.983 297.866 197.983C296.414 197.983 295.358 199.099 295.358 200.611C295.358 202.123 296.414 203.239 297.866 203.239C298.574 203.239 299.246 202.927 299.57 202.627V201.667H297.458V200.179H301.274V203.251C300.458 204.163 299.318 204.763 297.866 204.763ZM309.827 204.607H308.111V201.247H304.331V204.607H302.627V196.603H304.331V199.747H308.111V196.603H309.827V204.607Z" fill="#142D50"/>
<path d="M40 225.504H319" stroke="#D9D9D9" stroke-opacity="0.8" stroke-linecap="round"/>
<path d="M44.848 259.196C42.8 259.196 41.328 258.508 40.336 257.5L41.568 255.772C42.32 256.556 43.488 257.212 44.96 257.212C46.208 257.212 46.816 256.636 46.816 256.028C46.816 254.14 40.672 255.436 40.672 251.42C40.672 249.644 42.208 248.172 44.72 248.172C46.416 248.172 47.824 248.684 48.88 249.66L47.616 251.324C46.752 250.524 45.6 250.156 44.512 250.156C43.536 250.156 42.992 250.588 42.992 251.228C42.992 252.924 49.12 251.788 49.12 255.772C49.12 257.724 47.728 259.196 44.848 259.196ZM52.6338 259.004H50.6018V248.332H52.6338V259.004ZM61.8966 259.004H59.8646V258.028C59.3366 258.62 58.4086 259.196 57.1446 259.196C55.4486 259.196 54.6486 258.268 54.6486 256.764V251.276H56.6806V255.964C56.6806 257.036 57.2406 257.388 58.1046 257.388C58.8886 257.388 59.5126 256.956 59.8646 256.508V251.276H61.8966V259.004ZM71.2743 259.004H69.2263V258.012C68.6183 258.78 67.7703 259.196 66.8423 259.196C64.8903 259.196 63.4183 257.724 63.4183 255.148C63.4183 252.62 64.8743 251.084 66.8423 251.084C67.7543 251.084 68.6183 251.484 69.2263 252.268V248.332H71.2743V259.004ZM67.4663 257.388C68.1543 257.388 68.8903 257.02 69.2263 256.508V253.772C68.8903 253.26 68.1543 252.892 67.4663 252.892C66.3143 252.892 65.5143 253.804 65.5143 255.148C65.5143 256.476 66.3143 257.388 67.4663 257.388ZM76.4573 262.14C75.1293 262.14 74.1053 261.836 73.1293 260.988L74.0413 259.516C74.6653 260.204 75.4813 260.476 76.4573 260.476C77.4333 260.476 78.5853 260.044 78.5853 258.524V257.74C77.9773 258.508 77.1453 258.956 76.2013 258.956C74.2653 258.956 72.7933 257.596 72.7933 255.02C72.7933 252.492 74.2493 251.084 76.2013 251.084C77.1293 251.084 77.9613 251.484 78.5853 252.268V251.276H80.6333V258.476C80.6333 261.42 78.3613 262.14 76.4573 262.14ZM76.8413 257.148C77.5133 257.148 78.2493 256.764 78.5853 256.268V253.772C78.2493 253.26 77.5133 252.892 76.8413 252.892C75.6893 252.892 74.8893 253.692 74.8893 255.02C74.8893 256.348 75.6893 257.148 76.8413 257.148ZM86.2806 259.196C83.9286 259.196 82.1526 257.612 82.1526 255.132C82.1526 252.892 83.8006 251.084 86.1526 251.084C88.4566 251.084 90.0246 252.812 90.0246 255.34V255.788H84.2806C84.4086 256.764 85.1926 257.58 86.5046 257.58C87.1606 257.58 88.0726 257.292 88.5686 256.812L89.4646 258.124C88.6966 258.828 87.4806 259.196 86.2806 259.196ZM88.0566 254.412C88.0086 253.676 87.4966 252.7 86.1526 252.7C84.8886 252.7 84.3446 253.644 84.2486 254.412H88.0566ZM100.69 259.196C97.4741 259.196 95.1221 256.892 95.1221 253.676C95.1221 250.46 97.4741 248.156 100.69 248.156C103.922 248.156 106.274 250.46 106.274 253.676C106.274 255.18 105.762 256.492 104.882 257.452L105.666 258.364L104.082 259.66L103.218 258.668C102.466 259.004 101.618 259.196 100.69 259.196ZM100.69 257.18C101.09 257.18 101.458 257.116 101.81 257.004L100.642 255.628L102.21 254.332L103.394 255.724C103.746 255.148 103.938 254.444 103.938 253.676C103.938 251.676 102.658 250.172 100.69 250.172C98.7221 250.172 97.4581 251.676 97.4581 253.676C97.4581 255.66 98.7221 257.18 100.69 257.18ZM115.069 259.004H113.037V258.028C112.509 258.62 111.581 259.196 110.317 259.196C108.621 259.196 107.821 258.268 107.821 256.764V251.276H109.853V255.964C109.853 257.036 110.413 257.388 111.277 257.388C112.061 257.388 112.685 256.956 113.037 256.508V251.276H115.069V259.004ZM123.758 259.004H121.726V258.204C121.198 258.828 120.286 259.196 119.278 259.196C118.046 259.196 116.59 258.364 116.59 256.636C116.59 254.828 118.046 254.14 119.278 254.14C120.302 254.14 121.214 254.476 121.726 255.084V254.044C121.726 253.26 121.054 252.748 120.03 252.748C119.198 252.748 118.43 253.052 117.774 253.66L117.006 252.3C117.95 251.468 119.166 251.084 120.382 251.084C122.142 251.084 123.758 251.788 123.758 254.012V259.004ZM120.094 257.82C120.75 257.82 121.39 257.596 121.726 257.148V256.188C121.39 255.74 120.75 255.516 120.094 255.516C119.294 255.516 118.638 255.932 118.638 256.684C118.638 257.404 119.294 257.82 120.094 257.82ZM127.806 259.004H125.774V248.332H127.806V259.004ZM130.829 250.444C130.173 250.444 129.613 249.9 129.613 249.228C129.613 248.556 130.173 248.028 130.829 248.028C131.501 248.028 132.045 248.556 132.045 249.228C132.045 249.9 131.501 250.444 130.829 250.444ZM131.853 259.004H129.821V251.276H131.853V259.004ZM136.459 259.196C135.035 259.196 134.267 258.46 134.267 257.084V253.052H132.987V251.276H134.267V249.164H136.315V251.276H137.883V253.052H136.315V256.54C136.315 257.02 136.571 257.388 137.019 257.388C137.323 257.388 137.611 257.276 137.723 257.164L138.155 258.7C137.851 258.972 137.307 259.196 136.459 259.196ZM139.002 262.028L139.306 260.204C139.482 260.284 139.754 260.332 139.946 260.332C140.474 260.332 140.826 260.188 141.018 259.772L141.306 259.116L138.17 251.276H140.346L142.362 256.652L144.378 251.276H146.57L142.938 260.268C142.362 261.724 141.338 262.108 140.01 262.14C139.77 262.14 139.258 262.092 139.002 262.028Z" fill="#142D50"/>
<path d="M56.1695 413.337C54.5127 413.337 53.2238 411.994 53.2632 410.338C53.6329 394.769 56.8782 379.395 62.8441 364.992C69.193 349.664 78.4986 335.737 90.2298 324.006C101.961 312.275 115.888 302.969 131.215 296.62C146.543 290.271 162.971 287.004 179.561 287.004C196.152 287.004 212.58 290.271 227.907 296.62C243.235 302.969 257.161 312.275 268.893 324.006C280.624 335.737 289.93 349.664 296.278 364.992C302.244 379.395 305.49 394.769 305.859 410.338C305.899 411.994 304.616 413.337 302.959 413.337C279.102 413.337 131.445 413.337 56.1695 413.337Z" fill="#DEF4F9" style="mix-blend-mode:multiply"/>
<path d="M204.045 413.337H151.161C151.161 398.734 162.999 386.895 177.603 386.895C192.206 386.895 204.045 398.734 204.045 413.337Z" fill="#F0FFF7"/>
<path d="M51.8724 407.252C51.6713 411.474 55.1124 414.837 59.2434 414.837C63.4133 414.837 66.7013 411.467 66.9154 407.403C67.5889 394.618 70.4351 382.025 75.3457 370.17C81.0146 356.484 89.3235 344.049 99.7981 333.574C110.273 323.1 122.708 314.791 136.394 309.122C150.08 303.453 164.748 300.535 179.561 300.535C194.375 300.535 209.043 303.453 222.729 309.122C236.414 314.791 248.85 323.1 259.324 333.574C269.799 344.049 278.108 356.484 283.777 370.17C288.687 382.025 291.534 394.618 292.207 407.403C292.421 411.467 295.709 414.837 299.879 414.837C304.01 414.837 307.451 411.474 307.25 407.252C306.549 392.543 303.311 378.05 297.664 364.418C291.24 348.908 281.824 334.816 269.953 322.945C258.083 311.075 243.991 301.659 228.481 295.234C212.972 288.81 196.349 285.504 179.561 285.504C162.774 285.504 146.151 288.81 130.641 295.234C115.132 301.659 101.04 311.075 89.1692 322.945C77.2987 334.816 67.8825 348.908 61.4583 364.418C55.8114 378.05 52.5734 392.544 51.8724 407.252Z" fill="url(#paint1_linear_881_9015)" stroke="white" stroke-width="3"/>
<circle cx="215.593" cy="338.645" r="7.24866" fill="#142D50"/>
<circle cx="177.739" cy="415.159" r="4.02703" fill="#142D50"/>
<path d="M178.976 412.752L215.593 338.646" stroke="#142D50" stroke-width="1.5" stroke-linecap="round"/>
<path opacity="0.8" d="M51.0631 430.611H45.9751V422.607H47.6791V429.111H51.0631V430.611ZM55.7202 430.755C53.3082 430.755 51.5442 429.027 51.5442 426.615C51.5442 424.203 53.3082 422.475 55.7202 422.475C58.1442 422.475 59.9082 424.203 59.9082 426.615C59.9082 429.027 58.1442 430.755 55.7202 430.755ZM55.7202 429.243C57.1962 429.243 58.1562 428.103 58.1562 426.615C58.1562 425.115 57.1962 423.987 55.7202 423.987C54.2442 423.987 53.2962 425.115 53.2962 426.615C53.2962 428.103 54.2442 429.243 55.7202 429.243ZM68.8016 430.611H66.9896L65.5856 425.115L64.1936 430.611H62.3816L60.0896 422.607H61.9976L63.4016 428.391L64.9256 422.607H66.2576L67.7696 428.391L69.1616 422.607H71.0816L68.8016 430.611Z" fill="#142D50"/>
<path opacity="0.8" d="M290.62 430.611H288.904V427.251H285.124V430.611H283.42V422.607H285.124V425.751H288.904V422.607H290.62V430.611ZM293.901 430.611H292.197V422.607H293.901V430.611ZM299.366 430.767C297.026 430.767 295.106 429.135 295.106 426.615C295.106 424.083 297.026 422.475 299.366 422.475C301.034 422.475 302.078 423.315 302.678 424.263L301.262 425.031C300.902 424.467 300.218 423.987 299.366 423.987C297.914 423.987 296.858 425.103 296.858 426.615C296.858 428.127 297.914 429.243 299.366 429.243C300.074 429.243 300.746 428.931 301.07 428.631V427.671H298.958V426.183H302.774V429.255C301.958 430.167 300.818 430.767 299.366 430.767ZM311.327 430.611H309.611V427.251H305.831V430.611H304.127V422.607H305.831V425.751H309.611V422.607H311.327V430.611Z" fill="#142D50"/>
<defs>
<linearGradient id="paint0_linear_881_9015" x1="51.7276" y1="187.334" x2="304.395" y2="184.994" gradientUnits="userSpaceOnUse">
<stop stop-color="#5FD38E"/>
<stop offset="0.166667" stop-color="#C2F434"/>
<stop offset="0.442708" stop-color="#F5FA24"/>
<stop offset="0.682292" stop-color="#FCB712"/>
<stop offset="1" stop-color="#F55F50"/>
</linearGradient>
<linearGradient id="paint1_linear_881_9015" x1="53.2276" y1="413.337" x2="305.895" y2="410.998" gradientUnits="userSpaceOnUse">
<stop stop-color="#5FD38E"/>
<stop offset="0.166667" stop-color="#C2F434"/>
<stop offset="0.442708" stop-color="#F5FA24"/>
<stop offset="0.682292" stop-color="#FCB712"/>
<stop offset="1" stop-color="#F55F50"/>
</linearGradient>
</defs>
</svg>
