<svg width="132" height="60" viewBox="0 0 132 60" fill="none" xmlns="http://www.w3.org/2000/svg">
<path d="M113.922 57.6656C113.922 58.1932 114.421 58.359 114.704 58.359H115.345C115.871 58.359 115.871 59.2691 115.345 59.2691H109.161C108.636 59.2691 108.636 58.359 109.161 58.359H109.802C110.086 58.359 110.585 58.1932 110.585 57.6656V48.0583C110.585 47.533 110.086 47.3639 109.802 47.3639H109.161C108.636 47.3639 108.636 46.4546 109.161 46.4546H115.345C115.871 46.4546 115.871 47.3639 115.345 47.3639H114.704C114.421 47.3639 113.922 47.533 113.922 48.0583V57.6656Z" fill="black"/>
<path d="M91.7692 57.6655C92.0513 58.3589 91.5778 58.3589 91.2948 58.3589H90.6529C90.1273 58.3589 90.1273 59.269 90.6529 59.269H96.8378C97.3629 59.269 97.3629 58.3589 96.8378 58.3589H96.4016C96.1189 58.3589 95.7727 58.3589 95.4647 57.6655C95.4647 57.6655 90.6287 46.5945 90.5249 46.351C90.4239 46.1084 90.2826 46.1476 90.1788 46.1476H89.499C89.2556 46.1476 89.1791 46.351 89.129 46.4292C89.0764 46.506 84.2011 57.6658 84.2011 57.6658C83.8419 58.3592 83.6241 58.3592 83.3414 58.3592H82.7C82.1739 58.3592 82.1739 59.2693 82.7 59.2693H87.1643C87.6899 59.2693 87.6899 58.3592 87.1643 58.3592H86.0111C85.7278 58.3592 85.1758 58.4613 85.4838 57.6658L88.6401 50.0201L91.7692 57.6655Z" fill="black"/>
<path d="M90.6285 54.8707L90.2493 53.9575H87.017L86.6392 54.8707H90.6285Z" fill="black"/>
<path d="M77.4205 48.0581C77.1378 47.3636 77.6108 47.3636 77.8943 47.3636H78.5356C79.0607 47.3636 79.0607 46.4543 78.5356 46.4543H72.3518C71.8251 46.4543 71.8251 47.3636 72.3518 47.3636H72.7875C73.0702 47.3636 73.4164 47.3636 73.7233 48.0581C73.7233 48.0581 78.5599 59.0265 78.662 59.2689C78.7652 59.5129 78.9065 59.4745 79.0092 59.4745H79.4842C79.6364 59.4745 79.6711 59.5212 79.8217 59.2714C79.8706 59.1946 84.7821 48.0581 84.7821 48.0581C85.1413 47.3636 85.3591 47.3636 85.6424 47.3636H86.2832C86.8093 47.3636 86.8093 46.4543 86.2832 46.4543H82.4357C81.909 46.4543 81.909 47.3636 82.4357 47.3636H82.9733C83.2554 47.3636 83.8074 47.2626 83.4994 48.0581L80.3447 55.3966L77.4205 48.0581Z" fill="black"/>
<path d="M70.4738 57.6655C70.7559 58.3589 70.2829 58.3589 70 58.3589H69.3564C68.833 58.3589 68.833 59.269 69.3564 59.269H75.5416C76.0678 59.269 76.0678 58.3589 75.5416 58.3589H75.1054C74.8238 58.3589 74.4765 58.3589 74.1685 57.6655C74.1685 57.6655 69.3325 46.5945 69.2315 46.351C69.1277 46.1084 68.9864 46.1476 68.8837 46.1476H68.2028C68.0968 46.1476 68.0044 46.1354 67.8556 46.3816C67.8072 46.462 62.9052 57.6658 62.9052 57.6658C62.5457 58.3592 62.3278 58.3592 62.0474 58.3592H61.4041C60.8777 58.3592 60.8777 59.2693 61.4041 59.2693H65.8684C66.3948 59.2693 66.3948 58.3592 65.8684 58.3592H64.7146C64.4322 58.3592 63.8815 58.4613 64.1881 57.6658L67.3453 50.0201L70.4738 57.6655Z" fill="black"/>
<path d="M69.3324 54.8707L68.9548 53.9575H65.7211L65.343 54.8707H69.3324Z" fill="black"/>
<path d="M46.5867 52.8633L44.0728 50.3494L41.5584 52.8637L44.0724 55.3777L46.5867 52.8633Z" fill="black"/>
<path d="M0.609375 55.9734C0.609375 55.5625 1.50725 55.4336 1.50725 55.9734C1.50725 56.9737 1.97552 59.09 4.61822 59.09C7.26092 59.09 7.51078 57.2052 7.51078 56.5627C7.51078 53.6897 0.866466 54.3816 0.866466 49.9674C0.866466 46.8397 3.65663 45.7749 5.79906 45.7749C7.67132 45.7749 8.51132 46.2229 8.74254 46.4023C8.97403 46.5826 8.9988 46.7351 8.9988 46.9168V49.3035C8.9988 49.6349 8.48545 49.8923 8.28206 49.3035C8.07644 48.7128 7.38307 46.6327 5.79294 46.6327C3.99553 46.6327 3.35586 47.8912 3.35586 48.6616C3.35586 51.5603 9.97458 50.4307 9.97458 55.2035C9.97458 57.9225 7.45959 60.0001 4.6121 60.0001C1.7635 60.0001 0.839756 58.8404 0.609653 58.5833V55.9734H0.609375Z" fill="black"/>
<path d="M37.2991 56.1364C37.505 55.7257 37.9911 55.8025 37.9911 56.3398V58.0345C37.9911 58.1113 37.9911 58.2652 37.8645 58.367C37.7351 58.4694 36.1951 59.8049 33.6815 59.8049C29.9617 59.8049 25.7278 57.6238 25.7278 52.9277C25.7278 48.7976 30.0775 46.2061 33.7716 46.2061C34.849 46.2061 36.8119 46.6409 37.1714 46.7942C37.5306 46.9489 37.581 47.1023 37.6074 47.2965C37.633 47.4879 37.7863 48.7208 37.8375 49.0277C37.8898 49.3359 37.4026 49.7227 37.0674 49.1303C36.7349 48.5405 35.9391 47.0783 33.7591 47.0783C31.578 47.0783 29.1657 48.7464 29.1657 52.9795C29.1657 57.2134 31.7825 58.9315 33.6812 58.9315C34.9394 58.9313 36.4781 58.367 37.2991 56.1364Z" fill="black"/>
<path d="M121.816 46.4546L128.443 54.6659V48.0583C128.443 47.533 127.942 47.3639 127.66 47.3639H127.02C126.492 47.3639 126.492 46.4546 127.02 46.4546H130.996C131.522 46.4546 131.522 47.3639 130.996 47.3639H130.354C130.072 47.3639 129.572 47.533 129.572 48.0583V59.436C129.572 59.5387 129.534 59.6664 129.341 59.6664H128.34C128.264 59.6664 128.199 59.6411 128.122 59.5654C128.044 59.4875 119.616 48.9443 119.616 48.9443V57.6659C119.616 58.1934 120.117 58.3593 120.398 58.3593H121.041C121.567 58.3593 121.567 59.2694 121.041 59.2694H117.064C116.537 59.2694 116.537 58.3593 117.064 58.3593H117.705C117.987 58.3593 118.487 58.1934 118.487 57.6659V48.2642C118.487 47.661 118.013 47.3641 117.601 47.3641H117.064C116.537 47.3641 116.537 46.4549 117.064 46.4549H121.816V46.4546Z" fill="black"/>
<path d="M15.7839 46.4546L22.4087 54.6659V48.0583C22.4087 47.533 21.9104 47.3639 21.6263 47.3639H20.9852C20.4591 47.3639 20.4591 46.4546 20.9852 46.4546H24.9613C25.4888 46.4546 25.4888 47.3639 24.9613 47.3639H24.3219C24.0403 47.3639 23.5386 47.533 23.5386 48.0583V59.436C23.5386 59.5387 23.4991 59.6664 23.308 59.6664H22.3063C22.2298 59.6664 22.1664 59.6411 22.0885 59.5654C22.0128 59.4875 13.5838 48.9443 13.5838 48.9443V57.6659C13.5838 58.1934 14.0833 58.3593 14.366 58.3593H15.0081C15.5335 58.3593 15.5335 59.2694 15.0081 59.2694H11.0293C10.5029 59.2694 10.5029 58.3593 11.0293 58.3593H11.6729C11.9545 58.3593 12.4553 58.1934 12.4553 57.6659V48.2642C12.4553 47.661 11.9801 47.3641 11.5705 47.3641H11.0296C10.5032 47.3641 10.5032 46.4549 11.0296 46.4549H15.7839V46.4546Z" fill="black"/>
<path d="M56.6935 58.6303C57.199 58.6303 58.7939 58.622 59.8687 56.3969C60.0527 55.8949 60.8289 56.0074 60.741 56.524L60.3356 58.923C60.2992 59.1094 60.1723 59.2689 59.9505 59.2689H50.3296C49.8032 59.2689 49.8032 58.3587 50.3296 58.3587H50.9721C51.2531 58.3587 51.7545 58.1929 51.7545 57.6654V48.0581C51.7545 47.5328 51.2531 47.3636 50.9721 47.3636H50.3296C49.8032 47.3636 49.8032 46.4543 50.3296 46.4543H56.5124C57.0382 46.4543 57.0382 47.3636 56.5124 47.3636H55.8713C55.5894 47.3636 55.0878 47.5328 55.0878 48.0581V57.1534C55.0875 58.3359 55.775 58.6303 56.6935 58.6303Z" fill="black"/>
<path d="M104.458 58.6303C104.964 58.6303 106.559 58.622 107.635 56.3969C107.818 55.8949 108.594 56.0074 108.505 56.524L108.101 58.923C108.064 59.1094 107.938 59.2689 107.715 59.2689H98.0955C97.5688 59.2689 97.5688 58.3587 98.0955 58.3587H98.7357C99.0189 58.3587 99.5192 58.1929 99.5192 57.6654V48.0581C99.5192 47.5328 99.0187 47.3636 98.7357 47.3636H98.0955C97.5688 47.3636 97.5688 46.4543 98.0955 46.4543H104.278C104.803 46.4543 104.803 47.3636 104.278 47.3636H103.637C103.354 47.3636 102.855 47.5328 102.855 48.0581V57.1534C102.855 58.3359 103.542 58.6303 104.458 58.6303Z" fill="black"/>
<path d="M26.0129 16.9034L35.0415 25.932L44.0714 16.9034L35.0415 7.87573L26.0129 16.9034Z" fill="#00537B"/>
<path d="M36.9032 30.5354C38.318 31.5565 39.9034 32.3729 41.5971 32.921C47.543 29.4848 53.416 22.2342 53.416 16.9691C53.416 11.63 47.3602 4.23499 41.3288 0.861084C39.6669 1.43147 38.1146 2.24643 36.7329 3.27507C41.0147 4.99291 49.4292 13.7282 49.4292 16.9363C49.4289 20.1054 41.2326 28.6701 36.9032 30.5354Z" fill="#00537B"/>
<path d="M48.1506 0C56.8659 0.6725 63.7005 7.95148 63.7005 16.8401C63.7005 25.5522 57.0943 32.7285 48.6245 33.64C53.7568 29.3911 57.402 23.1199 57.402 16.9998C57.402 10.7102 53.5109 4.2498 48.1506 0Z" fill="#00537B"/>
</svg>
