<svg width="30" height="30" viewBox="0 0 30 30" fill="none" xmlns="http://www.w3.org/2000/svg">
<path d="M6.36897 26.4865H20.1818C21.2863 26.4865 22.1791 25.5911 22.1791 24.4865V8.95947C22.1791 7.8549 21.2836 6.95947 20.1791 6.95947H6.375C5.27043 6.95947 4.375 7.85385 4.375 8.95842V24.4921C4.375 25.5966 5.2644 26.4865 6.36897 26.4865Z" stroke="white" stroke-width="1.5"/>
<path d="M25.6251 23.0405V5.51343C25.6251 4.40886 24.7297 3.51343 23.6251 3.51343H7.82104" stroke="white" stroke-width="1.5" stroke-linecap="round"/>
<path d="M8.39526 13.8513H17.0101" stroke="white" stroke-width="1.5" stroke-linecap="round"/>
<path d="M7.82104 21.4661V19.4458C7.82104 18.8935 8.26876 18.4458 8.82105 18.4458H16.0102C16.5625 18.4458 17.0102 18.8935 17.0102 19.4458V21.4661C17.0102 22.0184 16.5625 22.4661 16.0102 22.4661H8.82104C8.26876 22.4661 7.82104 22.0184 7.82104 21.4661Z" stroke="white" stroke-width="1.5" stroke-linecap="round"/>
</svg>
