<svg width="30" height="30" viewBox="0 0 30 30" fill="none" xmlns="http://www.w3.org/2000/svg">
<path d="M23.0289 22.4227H15.7191M6.125 22.8796L11.1955 20.9294C11.5198 20.8047 11.682 20.7423 11.8337 20.6609C11.9684 20.5885 12.0969 20.505 12.2177 20.4113C12.3538 20.3057 12.4766 20.1829 12.7223 19.9372L21.6583 11.0014C22.6675 9.99212 22.6675 8.35577 21.6583 7.3465C20.649 6.33723 19.0127 6.33723 18.0034 7.3465L9.06744 16.2823C8.82174 16.528 8.69888 16.6508 8.59332 16.7869C8.49956 16.9077 8.41607 17.0362 8.34373 17.1709C8.26229 17.3226 8.19992 17.4848 8.07519 17.8091L6.125 22.8796ZM6.125 22.8796L8.00555 17.9902C8.14012 17.6404 8.2074 17.4654 8.32281 17.3853C8.42367 17.3153 8.54847 17.2888 8.66907 17.3118C8.80708 17.3382 8.93961 17.4707 9.20468 17.7358L11.2689 19.7999C11.5339 20.065 11.6665 20.1975 11.6928 20.3356C11.7159 20.4562 11.6894 20.581 11.6193 20.6818C11.5392 20.7972 11.3643 20.8645 11.0144 20.9991L6.125 22.8796Z" stroke="#142D50" stroke-width="1.5" stroke-linecap="round" stroke-linejoin="round"/>
</svg>
