<svg width="44" height="44" viewBox="0 0 44 44" fill="none" xmlns="http://www.w3.org/2000/svg">
<path d="M11.1445 28.3243V15.6716H14.0935C15.7822 15.6716 17.096 16.1247 18.0351 17.0308C19.2707 18.217 19.8885 19.8727 19.8885 22.0021C19.8885 24.1314 19.3655 25.7212 18.3234 26.8621C17.4338 27.8341 16.1076 28.3201 14.3406 28.3201H11.1445V28.3243ZM14.5631 25.2682C15.7863 25.2064 16.4 24.152 16.4 22.105C16.4 21.096 16.2435 20.2969 15.9346 19.7121C15.6216 19.1231 15.2014 18.8266 14.6743 18.8266H14.5672V25.2682H14.5631Z" fill="#216C8A"/>
<path d="M24.3453 28.3243H20.9268V15.6758H24.2382C25.8898 15.6758 27.113 16.0094 27.9079 16.6848C28.847 17.4756 29.3165 18.5794 29.3165 19.988C29.3165 21.5243 28.8182 22.6693 27.8173 23.4189C27.1336 23.9255 26.1534 24.1809 24.8766 24.1809H24.3453V28.3284V28.3243ZM24.3453 21.3348L24.5018 21.3431C24.9178 21.3431 25.2473 21.2154 25.4944 20.96C25.7415 20.7047 25.8651 20.3587 25.8651 19.9139C25.8651 19.4691 25.7456 19.1231 25.5026 18.8471C25.2637 18.5671 24.9548 18.4312 24.5842 18.4312H24.3453V21.3307V21.3348Z" fill="#216C8A"/>
<path d="M41.1092 28.3243H37.8142L37.0275 23.8925C36.8751 23.0359 36.7598 22.2904 36.6857 21.6643C36.6486 21.3513 36.6157 21.0918 36.5868 20.8859C36.558 20.68 36.5415 20.5193 36.5292 20.4122C36.5003 20.6347 36.4592 21.0548 36.4056 21.6643C36.3768 21.9774 36.3438 22.3027 36.3068 22.6487C36.2697 22.9906 36.2203 23.3571 36.1667 23.7402L35.5201 28.3284H32.1922L29.375 15.6758H32.7523L33.3084 19.156C33.5225 20.544 33.6708 21.6355 33.7532 22.4263L33.8685 23.5836L33.9756 22.591C34.0909 21.4337 34.2392 20.334 34.4163 19.2878L35.0547 15.6758H37.9954L38.5679 18.7153C38.8398 20.1281 39.0786 21.8044 39.2805 23.7402C39.3422 22.8711 39.404 22.1009 39.4782 21.4296C39.5482 20.7582 39.6264 20.1487 39.717 19.6009L40.339 15.6758H43.6751L41.1092 28.3284V28.3243Z" fill="#216C8A"/>
<path d="M15.5314 39.1029C17.6649 39.9102 19.8478 40.2891 21.9978 40.2891C28.1882 40.2891 34.0861 37.1136 37.4552 31.784C38.003 30.919 39.148 30.6596 40.0129 31.2074C40.8779 31.7551 41.1373 32.9001 40.5896 33.7651C36.5285 40.1902 29.4526 43.9959 21.9978 44C19.4112 44 16.7794 43.5387 14.2217 42.5708C13.2661 42.2084 12.7801 41.1375 13.1426 40.182C13.505 39.2264 14.5759 38.7404 15.5314 39.1029Z" fill="url(#paint0_linear_1021_5243)"/>
<path d="M2.05111 31.2609C0.716653 28.386 0 25.227 0 21.9938C0 19.4073 0.461294 16.7754 1.42919 14.2177C4.75709 5.4202 13.118 0 22.0021 0C24.5886 0 27.2205 0.461294 29.7782 1.42919C34.5023 3.21258 38.2627 6.46223 40.7215 10.4574C41.257 11.3305 40.9851 12.4714 40.1161 13.0068C39.2429 13.5423 38.102 13.2704 37.5666 12.4014C35.5196 9.0776 32.4059 6.38809 28.4684 4.89713C26.3349 4.08986 24.152 3.71094 22.0021 3.71094C14.6172 3.71094 7.66077 8.21679 4.89301 15.5357C4.08575 17.6692 3.70683 19.8521 3.70683 22.0021C3.70683 24.6833 4.30404 27.3152 5.41197 29.7081C5.84443 30.6348 5.4408 31.7386 4.50997 32.1711C3.58326 32.6036 2.47945 32.1999 2.04699 31.2691L2.05111 31.2609Z" fill="url(#paint1_linear_1021_5243)"/>
<path d="M35.2515 30.1035C35.1856 30.0582 35.1114 30.0253 35.0332 30.0129H34.8396C34.6996 30.0376 34.5678 30.1159 34.4813 30.2436L34.4689 30.2642C34.4689 30.2642 34.4483 30.293 34.4401 30.3053C34.4071 30.3548 34.3824 30.3877 34.3824 30.3877C33.0027 32.4388 31.0957 34.1275 28.9046 35.2684C26.7134 36.4134 24.234 37.0023 21.7627 36.9612C20.0411 36.9323 18.3236 36.6028 16.7091 35.9933C16.0007 35.7173 15.3087 35.3961 14.6415 35.0295C13.9825 34.6506 13.3482 34.2263 12.7469 33.7609C11.5566 32.8178 10.5022 31.6975 9.64965 30.4371C7.93216 27.9247 7.00133 24.8851 7.0384 21.8414C7.05899 20.091 7.39673 18.3488 8.00629 16.7095C8.28225 16.0011 8.6035 15.3092 8.97007 14.6461C9.34899 13.9871 9.77321 13.3528 10.2386 12.7515C11.1818 11.5612 12.3021 10.5068 13.5624 9.65421C16.0748 7.93672 19.1144 7.00589 22.1581 7.04296C23.855 7.07179 25.5519 7.37245 27.15 7.96555C27.15 7.96555 27.1953 7.98202 27.29 8.01497L27.3147 8.02321C27.6031 8.12206 27.9202 7.97378 28.019 7.68547C28.1179 7.4054 27.9779 7.10062 27.706 6.98941C27.6978 6.98941 27.6895 6.98118 27.6813 6.98118C27.5825 6.94411 27.5289 6.92763 27.5289 6.92763C25.8155 6.29336 23.9951 5.96798 22.1705 5.93915C22.1128 5.93915 22.0552 5.93915 21.9975 5.93915C18.7849 5.93915 15.5888 6.93587 12.9405 8.74398C11.5896 9.65833 10.3869 10.791 9.3737 12.0719C8.87122 12.7185 8.41816 13.3981 8.01041 14.1065C7.61502 14.8232 7.26905 15.5645 6.97662 16.3224C6.31763 18.0811 5.9593 19.9509 5.93459 21.8332C5.89752 25.1034 6.89836 28.3654 8.73942 31.0632C9.65789 32.4141 10.7864 33.6168 12.0673 34.63C12.714 35.1325 13.3935 35.5855 14.102 35.9891C14.8186 36.3845 15.56 36.7305 16.3178 37.0229C18.0477 37.6778 19.8929 38.032 21.7463 38.0609C24.4028 38.102 27.0594 37.4678 29.4153 36.2445C31.7712 35.0213 33.8182 33.2049 35.3009 31.0014C35.3009 31.0014 35.3256 30.9685 35.3627 30.9149C35.3627 30.9149 35.3833 30.8861 35.3915 30.8696C35.3956 30.8655 35.3997 30.8573 35.4039 30.8531C35.4451 30.7914 35.4698 30.7255 35.4821 30.6554V30.4619C35.4574 30.3218 35.3792 30.1941 35.2515 30.1035Z" fill="url(#paint2_linear_1021_5243)"/>
<defs>
<linearGradient id="paint0_linear_1021_5243" x1="27.6485" y1="30.9873" x2="49.7761" y2="39.3574" gradientUnits="userSpaceOnUse">
<stop stop-color="#128D4B"/>
<stop offset="0.34" stop-color="#16835D"/>
<stop offset="1" stop-color="#216C8A"/>
</linearGradient>
<linearGradient id="paint1_linear_1021_5243" x1="13.4371" y1="3.42311" x2="47.4491" y2="16.2887" gradientUnits="userSpaceOnUse">
<stop stop-color="#128D4B"/>
<stop offset="0.34" stop-color="#16835D"/>
<stop offset="1" stop-color="#216C8A"/>
</linearGradient>
<linearGradient id="paint2_linear_1021_5243" x1="5.93047" y1="21.9979" x2="35.4821" y2="21.9979" gradientUnits="userSpaceOnUse">
<stop stop-color="#128D4B"/>
<stop offset="0.34" stop-color="#16835D"/>
<stop offset="1" stop-color="#216C8A"/>
</linearGradient>
</defs>
</svg>
