<svg width="26" height="26" viewBox="0 0 26 26" fill="none" xmlns="http://www.w3.org/2000/svg">
<path d="M14.8889 1.47687L15.4402 3.01925C15.5073 3.21298 15.6563 3.362 15.8426 3.44396L17.7501 4.23378C17.9364 4.30829 18.1524 4.30829 18.3313 4.21888L19.8066 3.51847C20.0823 3.38435 20.4101 3.44396 20.6262 3.66004L22.34 5.3738C22.556 5.58988 22.6082 5.91773 22.4815 6.19342L21.7811 7.66874C21.6917 7.85501 21.6917 8.06364 21.7662 8.24992L22.556 10.1574C22.6305 10.3437 22.787 10.4927 22.9808 10.5598L24.5231 11.1111C24.8137 11.2155 25 11.4837 25 11.7892V14.2108C25 14.5163 24.8063 14.7845 24.5231 14.8889L22.9808 15.4402C22.787 15.5073 22.638 15.6563 22.556 15.8426L21.7662 17.7501C21.6917 17.9364 21.6917 18.1524 21.7811 18.3313L22.4815 19.8066C22.6156 20.0823 22.556 20.4101 22.34 20.6262L20.6262 22.34C20.4101 22.556 20.0823 22.6082 19.8066 22.4815L18.3313 21.7811C18.145 21.6917 17.9364 21.6917 17.7501 21.7662L15.8426 22.556C15.6563 22.6305 15.5073 22.787 15.4402 22.9808L14.8889 24.5231C14.7845 24.8137 14.5163 25 14.2108 25H11.7892C11.4837 25 11.2155 24.8063 11.1111 24.5231L10.5598 22.9808C10.4927 22.787 10.3437 22.638 10.1574 22.556L8.24992 21.7662C8.06364 21.6917 7.84756 21.6917 7.66874 21.7811L6.19342 22.4815C5.91773 22.6156 5.58988 22.556 5.3738 22.34L3.66004 20.6262C3.44396 20.4101 3.3918 20.0823 3.51847 19.8066L4.21888 18.3313C4.30829 18.145 4.30829 17.9364 4.23378 17.7501L3.44396 15.8426C3.36945 15.6563 3.21298 15.5073 3.01925 15.4402L1.47687 14.8889C1.18628 14.7845 1 14.5163 1 14.2108V11.7892C1 11.4837 1.19373 11.2155 1.47687 11.1111L3.01925 10.5598C3.21298 10.4927 3.362 10.3437 3.44396 10.1574L4.23378 8.24992C4.30829 8.06364 4.30829 7.84756 4.21888 7.66874L3.51847 6.19342C3.38435 5.91773 3.44396 5.58988 3.66004 5.3738L5.3738 3.66004C5.58988 3.44396 5.91773 3.3918 6.19342 3.51847L7.66874 4.21888C7.85501 4.30829 8.06364 4.30829 8.24992 4.23378L10.1574 3.44396C10.3437 3.36945 10.4927 3.21298 10.5598 3.01925L11.1111 1.47687C11.2155 1.18628 11.4837 1 11.7892 1H14.2108C14.5163 1 14.7845 1.19373 14.8889 1.47687V1.47687Z" stroke="#142D50" stroke-width="1.5" stroke-linecap="round" stroke-linejoin="round"/>
<path d="M12.9965 17.9818C15.7495 17.9818 17.9813 15.75 17.9813 12.997C17.9813 10.244 15.7495 8.01221 12.9965 8.01221C10.2435 8.01221 8.01172 10.244 8.01172 12.997C8.01172 15.75 10.2435 17.9818 12.9965 17.9818Z" stroke="#142D50" stroke-width="1.5" stroke-linecap="round" stroke-linejoin="round"/>
</svg>
